<?xml version="1.0" encoding="UTF-8"?>
<svg version="1.1" xmlns="http://www.w3.org/2000/svg" width="512" height="512">
<path d="M0 0 C1.55416011 -0.00967334 1.55416011 -0.00967334 3.1397174 -0.0195421 C4.27141693 -0.01644489 5.40311646 -0.01334769 6.56910992 -0.01015663 C7.77646901 -0.01468774 8.98382811 -0.01921886 10.22777385 -0.02388728 C13.57596923 -0.03435932 16.92394983 -0.03585683 20.27214634 -0.03349853 C23.88439449 -0.03309036 27.49661059 -0.04412948 31.1088438 -0.05361366 C38.18483933 -0.07022479 45.26080153 -0.07572326 52.33681492 -0.07683842 C58.08892067 -0.07778886 63.84101544 -0.08189894 69.59311771 -0.08823967 C85.90296565 -0.10585253 102.21278728 -0.11507849 118.5226448 -0.11357872 C119.84147763 -0.11345885 119.84147763 -0.11345885 121.18695354 -0.11333656 C122.06724953 -0.1132548 122.94754551 -0.11317304 123.85451712 -0.1130888 C138.12046399 -0.11227593 152.38630527 -0.13141381 166.6522216 -0.1596133 C181.30190681 -0.18834276 195.95154054 -0.20215355 210.60125464 -0.20042574 C218.82533456 -0.19976186 227.0493038 -0.20525361 235.27335835 -0.22678185 C242.27568098 -0.2449945 249.27784276 -0.24934036 256.28017882 -0.235763 C259.85186226 -0.22923365 263.4232371 -0.22911452 266.99489117 -0.2464695 C270.86962708 -0.26510327 274.7439126 -0.25264466 278.61867046 -0.23720741 C280.30618151 -0.2526381 280.30618151 -0.2526381 282.02778369 -0.26838052 C289.76129837 -0.20024405 294.73869825 1.18542587 300.9913969 5.93305016 C307.06080952 12.12060219 309.75514561 18.57891489 309.78436565 27.25726891 C309.16644534 35.02157204 305.74386004 41.52480975 300.08124065 46.86273766 C294.51028727 51.14133023 289.01594603 52.35708151 282.04999065 52.30023766 C280.56934124 52.29093224 280.56934124 52.29093224 279.05877972 52.28143883 C278.30822308 52.27346275 277.55766644 52.26548668 276.78436565 52.25726891 C276.80531292 53.55535484 276.82626019 54.85344078 276.84784222 56.19086266 C277.55390256 104.15127578 277.55390256 104.15127578 272.78436565 123.25726891 C272.4417815 124.78197788 272.09933081 126.30671686 271.7570219 127.83148766 C265.6348495 153.4274383 253.07778768 177.71238162 236.78436565 198.25726891 C236.35043499 198.80689293 235.91650433 199.35651695 235.46942425 199.92279625 C225.96316054 211.83869582 215.3497559 222.99682558 203.22186565 232.25726891 C194.95963049 238.57377835 189.48191201 243.61495904 187.78436565 254.25726891 C187.5357318 260.51455431 189.09019284 266.18511099 192.78436565 271.25726891 C196.66136339 275.28559927 200.94134477 278.79761908 205.3195219 282.26508141 C218.79196882 292.95362904 230.76279876 305.2769493 240.78436565 319.25726891 C241.20911175 319.84830406 241.63385784 320.43933922 242.07147503 321.04828453 C258.80723613 344.62013564 269.34186962 370.89419392 274.78436565 399.25726891 C274.98159222 400.24791344 275.17881878 401.23855797 275.3820219 402.25922203 C277.40061157 413.97983597 277.00408599 425.77971682 276.90936565 437.63226891 C276.89931319 439.83278565 276.89019136 442.03330686 276.8820219 444.23383141 C276.86019407 449.57507601 276.82689708 454.91615109 276.78436565 460.25726891 C277.89279827 460.23769127 277.89279827 460.23769127 279.02362347 460.21771812 C280.00169964 460.20756676 280.97977581 460.19741539 281.98749065 460.18695641 C283.43623577 460.16737877 283.43623577 460.16737877 284.91424847 460.14740562 C291.65528276 460.40544113 297.29686671 462.78555478 302.21405315 467.39398766 C306.90006996 472.95426133 310.03361735 479.91819121 309.78436565 487.25726891 C308.79024757 496.92732661 305.08100002 502.38707873 297.8820219 508.74164391 C293.94892787 511.58343252 290.37976239 512.50694715 285.56873131 512.51453781 C284.53262457 512.5209867 283.49651782 512.5274356 282.42901391 512.53407991 C281.29731438 512.53098271 280.16561485 512.5278855 278.99962139 512.52469444 C277.79226229 512.52922556 276.5849032 512.53375667 275.34095746 512.53842509 C271.99276208 512.54889713 268.64478148 512.55039464 265.29658496 512.54803634 C261.68433682 512.54762817 258.07212072 512.55866729 254.4598875 512.56815147 C247.38389198 512.5847626 240.30792978 512.59026107 233.23191639 512.59137623 C227.47981064 512.59232667 221.72771587 512.59643675 215.97561359 512.60277748 C199.66576565 512.62039034 183.35594403 512.6296163 167.04608651 512.62811653 C165.72725368 512.62799666 165.72725368 512.62799666 164.38177776 512.62787437 C163.50148178 512.62779261 162.6211858 512.62771085 161.71421418 512.62762661 C147.44826732 512.62681374 133.18242604 512.64595163 118.91650971 512.67415111 C104.26682449 512.70288058 89.61719077 512.71669136 74.96747667 512.71496356 C66.74339674 512.71429967 58.51942751 512.71979142 50.29537296 512.74131966 C43.29305033 512.75953231 36.29088855 512.76387817 29.28855249 512.75030081 C25.71686905 512.74377146 22.14549421 512.74365233 18.57384014 512.76100731 C14.69910423 512.77964108 10.82481871 512.76718247 6.95006084 512.75174522 C5.82505348 512.76203235 4.70004611 512.77231948 3.54094762 512.78291833 C-4.19256706 512.71478186 -9.16996694 511.32911195 -15.4226656 506.58148766 C-21.49207821 500.39393562 -24.1864143 493.93562293 -24.21563435 485.25726891 C-23.59771403 477.49296577 -20.17512873 470.98972806 -14.51250935 465.65180016 C-8.94155596 461.37320758 -3.44721473 460.15745631 3.51874065 460.21430016 C4.50584026 460.22050377 5.49293987 460.22670738 6.50995159 460.23309898 C7.26050823 460.24107506 8.01106487 460.24905113 8.78436565 460.25726891 C8.76341839 458.95918297 8.74247112 457.66109703 8.72088909 456.32367516 C8.01482875 408.36326203 8.01482875 408.36326203 12.78436565 389.25726891 C13.12694981 387.73255993 13.4694005 386.20782095 13.8117094 384.68305016 C19.93388181 359.08709951 32.49094362 334.80215619 48.78436565 314.25726891 C49.21829632 313.70764488 49.65222698 313.15802086 50.09930706 312.59174156 C59.60557077 300.675842 70.21897541 289.51771223 82.34686565 280.25726891 C90.60910081 273.94075946 96.08681929 268.89957878 97.78436565 258.25726891 C98.03299951 251.9999835 96.47853847 246.32942682 92.78436565 241.25726891 C88.91892894 237.24095084 84.65588478 233.73401447 80.28436565 230.28461266 C43.30491277 201.02800283 19.71932577 159.28872465 10.78436565 113.25726891 C10.48635052 111.76477623 10.48635052 111.76477623 10.18231487 110.24213219 C8.16552739 98.52699573 8.56469119 86.72908101 8.65936565 74.88226891 C8.66941812 72.68175216 8.67853995 70.48123095 8.6867094 68.28070641 C8.70853724 62.9394618 8.74183423 57.59838672 8.78436565 52.25726891 C8.04541058 52.27032066 7.3064555 52.28337242 6.54510784 52.29681969 C5.56703167 52.30697105 4.5889555 52.31712242 3.58124065 52.32758141 C2.61541058 52.34063316 1.6495805 52.35368492 0.65448284 52.36713219 C-6.08655145 52.10909668 -11.7281354 49.72898303 -16.64532185 45.12055016 C-21.33133865 39.56027648 -24.46488604 32.5963466 -24.21563435 25.25726891 C-23.22151626 15.5872112 -19.51226871 10.12745908 -12.3132906 3.77289391 C-8.38019656 0.93110529 -4.81103108 0.00759066 0 0 Z M24.78436565 52.25726891 C24.78436565 92.33993121 26.46551503 126.95431302 45.78436565 162.25726891 C46.39924847 163.42387047 47.01413128 164.59047203 47.6476469 165.79242516 C55.67985468 180.54308416 66.15647306 193.21958274 77.78436565 205.25726891 C78.68348675 206.23373375 78.68348675 206.23373375 79.6007719 207.22992516 C84.38945904 212.30665363 89.96798568 216.45434792 95.47967815 220.70648766 C96.04283733 221.14291588 96.60599651 221.5793441 97.18622112 222.02899742 C98.60882651 223.12235638 100.04713141 224.19521919 101.48749065 225.26508141 C108.16172161 231.0539552 113.171665 240.40012741 113.9601469 249.22455406 C114.812448 262.99226074 112.7932367 273.38805909 104.2413969 284.57367516 C100.62174515 288.52709447 96.47462953 291.57403316 92.16717815 294.71430016 C86.64318788 298.77549715 81.74468916 303.53945011 76.78436565 308.25726891 C76.15143597 308.83734703 75.51850628 309.41742516 74.8663969 310.01508141 C60.20606092 323.87449642 49.21111772 342.10662353 40.78436565 360.25726891 C39.98385784 361.93176109 39.98385784 361.93176109 39.16717815 363.64008141 C24.98568005 394.7218104 24.78436565 426.27487983 24.78436565 460.25726891 C102.66436565 460.25726891 180.54436565 460.25726891 260.78436565 460.25726891 C260.78436565 409.44131515 255.45766254 364.67615537 222.78436565 324.25726891 C222.36042522 323.7318148 221.93648479 323.2063607 221.49969769 322.66498375 C210.37074754 308.95811823 198.0911476 297.82252122 184.0617094 287.19476891 C177.23692297 281.3884326 172.53177258 272.05931344 171.55682659 263.18646812 C170.61166166 249.51724326 172.8624502 239.01274274 181.3273344 227.94086266 C184.94698615 223.98744334 189.09410178 220.94050465 193.40155315 217.80023766 C198.92554343 213.73904066 203.82404215 208.9750877 208.78436565 204.25726891 C209.41729534 203.67719078 210.05022503 203.09711266 210.7023344 202.49945641 C242.87675552 172.08278276 257.91719969 127.26475836 260.78436565 84.25726891 C260.78436565 73.69726891 260.78436565 63.13726891 260.78436565 52.25726891 C182.90436565 52.25726891 105.02436565 52.25726891 24.78436565 52.25726891 Z " fill="#000000" transform="translate(113.2156343460083,-0.25726890563964844)"/>
<path d="M0 0 C40.92 0 81.84 0 124 0 C116.80801286 14.38397429 102.33208323 23.01237412 88 29 C81.48278503 31.77844072 75.97208246 34.22612872 73 41 C70.71672561 48.20023195 70.70989901 55.04873615 70.734375 62.5625 C70.73246155 63.86719238 70.7305481 65.17188477 70.72857666 66.51611328 C70.7256399 69.27299769 70.72987051 72.02975192 70.73925781 74.78662109 C70.7505631 78.27178019 70.74394245 81.75663119 70.73239422 85.24177933 C70.31764813 110.61931735 70.31764813 110.61931735 75.6875 135.25 C75.94732666 135.99886475 76.20715332 136.74772949 76.47485352 137.51928711 C83.42457812 156.74197355 97.14861082 171.70560294 113.94165039 182.87451172 C134.9158108 196.89045523 150.64607869 215.16519356 157.8125 239.75 C159 246 159 246 159 262 C94.98 262 30.96 262 -35 262 C-35 240.36933905 -30.43722918 222.31900478 -16 206 C-15.33484375 205.20464844 -14.6696875 204.40929687 -13.984375 203.58984375 C-6.66047003 195.06724211 1.7043501 188.04459653 11.125 181.9375 C16.96844421 178.13583291 22.03356025 173.8844853 27 169 C28.14082031 167.87851562 28.14082031 167.87851562 29.3046875 166.734375 C38.0771807 157.56727138 44.30641554 147.02822056 48.4375 135.0625 C48.78977661 134.06379883 48.78977661 134.06379883 49.14916992 133.04492188 C54.19903835 117.17550937 53.31625469 100.08406412 53.26074219 83.65258789 C53.24926864 80.22804243 53.25598365 76.80380793 53.26788712 73.37927341 C53.27689398 70.06662676 53.27057286 66.75406169 53.265625 63.44140625 C53.26967346 62.22562393 53.27372192 61.00984161 53.27789307 59.75721741 C53.23105301 51.2209159 53.17874921 42.51257466 47.64453125 35.54296875 C44.30450852 32.40921821 40.14250095 30.83935475 36 29 C21.7064267 22.44341913 9.74241026 14.72527167 0 2 C0 1.34 0 0.68 0 0 Z " fill="#000000" transform="translate(194,177)"/>
</svg>
