<?xml version="1.0" encoding="UTF-8"?>
<svg version="1.1" xmlns="http://www.w3.org/2000/svg" width="512" height="512">
<path d="M0 0 C1.29744141 -0.00708984 2.59488281 -0.01417969 3.93164062 -0.02148438 C13.19225625 0.03953337 22.26657978 0.60106136 29.75 6.625 C30.43707031 7.15480469 31.12414062 7.68460937 31.83203125 8.23046875 C38.12478535 14.82676943 40.60549123 22.67363173 43.15991211 31.26635742 C43.75501015 33.26684214 44.36724261 35.26146821 44.98242188 37.25585938 C47.9375 46.98526786 47.9375 46.98526786 47.9375 50.4375 C49.13375 50.64375 50.33 50.85 51.5625 51.0625 C54.77282241 51.70855362 57.10763945 52.53194937 59.9909668 54.13256836 C65.08860311 56.93471884 68.80157318 58.94297344 74.7421875 57.53710938 C78.74275439 55.84309004 82.42210865 53.63126414 86.125 51.375 C87.4301766 50.62860568 88.73811686 49.88702244 90.04882812 49.15039062 C92.43845684 47.80298962 94.79930159 46.42780922 97.15698242 45.02319336 C101.56841876 42.50740804 104.97273086 42.22217 110 42.125 C111.87365234 42.06892578 111.87365234 42.06892578 113.78515625 42.01171875 C124.47694794 42.6670054 131.19263877 48.78232441 138.29882812 56.12646484 C139.8135034 57.68853479 141.35331347 59.22200935 142.8984375 60.75390625 C150.75005629 68.65215855 155.69302481 75.63552504 156.25 87.0625 C156.03784087 98.42015867 149.50729586 108.20414759 143.91992188 117.71484375 C143.39333984 118.64167969 142.86675781 119.56851563 142.32421875 120.5234375 C141.84170654 121.3489209 141.35919434 122.1744043 140.86206055 123.02490234 C139.0945077 127.63724911 141.3770159 131.96411226 142.9375 136.4375 C142.289021 136.48237549 141.64054199 136.52725098 140.97241211 136.57348633 C118.30064 138.18529979 97.41707922 141.56072631 76.828125 151.49609375 C73.9375 152.4375 73.9375 152.4375 71.78125 151.88671875 C69.49597436 150.09045336 67.9311152 148.13972193 66.1875 145.8125 C51.92953018 127.61139201 32.13714926 116.77892064 9.09375 113.96875 C-14.01867026 111.7737472 -35.88337236 118.63151184 -54.12109375 132.81640625 C-71.42435245 147.76776571 -81.71295156 168.20299885 -83.78686523 190.84643555 C-85.34608925 213.138032 -78.64345658 234.97330701 -64.140625 252.10546875 C-63.45484375 252.87503906 -62.7690625 253.64460937 -62.0625 254.4375 C-61.39734375 255.19675781 -60.7321875 255.95601562 -60.046875 256.73828125 C-47.15879695 270.55716494 -30.10625794 277.75320942 -11.78808594 281.05786133 C-9.85963264 281.4253374 -7.95643058 281.92078175 -6.0625 282.4375 C-5.20363832 285.01408503 -4.86574193 286.84822839 -4.66796875 289.5078125 C-2.04304591 321.56845316 9.04748599 355.34807264 32.7890625 378.26953125 C34.9375 380.4375 34.9375 380.4375 35.0625 382.4375 C31.53447916 388.70953704 25.62043796 392.27187587 18.9375 394.4375 C13.61650381 395.2144484 8.23395869 395.11640243 2.86938477 395.03442383 C0.37597034 395.00001339 -2.11390682 395.01383173 -4.60742188 395.03320312 C-20.06606531 395.02006476 -20.06606531 395.02006476 -27.0625 390.4375 C-27.87203125 389.91929687 -28.6815625 389.40109375 -29.515625 388.8671875 C-36.49877392 382.8252456 -39.72099113 375.85984497 -41.5625 366.87109375 C-43.72901785 354.49468517 -43.72901785 354.49468517 -50.38378906 344.28710938 C-55.8828812 340.81250831 -62.50763689 337.88820326 -69.0625 337.4375 C-73.34977628 338.54817117 -77.0792045 340.36465399 -80.9765625 342.44140625 C-82.06710938 343.01697266 -83.15765625 343.59253906 -84.28125 344.18554688 C-85.4053125 344.78431641 -86.529375 345.38308594 -87.6875 346 C-89.92758632 347.19275667 -92.16969242 348.38172986 -94.4140625 349.56640625 C-95.40229004 350.09306885 -96.39051758 350.61973145 -97.40869141 351.16235352 C-104.86145488 354.74338237 -114.33963586 354.72432741 -122.125 352.125 C-128.24890176 349.31614392 -132.88374777 344.56535325 -137.59863281 339.87353516 C-138.97796797 338.52042485 -140.40575507 337.21721899 -141.8359375 335.91796875 C-149.83594259 328.48252859 -155.29184976 320.16064336 -156.25 309.08203125 C-155.51793856 298.75691463 -150.840095 290.85690129 -145.85864258 282.00683594 C-144.87556201 280.25032861 -143.91599599 278.48072619 -142.95703125 276.7109375 C-142.37800049 275.67372559 -141.79896973 274.63651367 -141.20239258 273.56787109 C-138.91991825 267.29974392 -141.44819011 261.99428447 -144.0625 256.1875 C-147.02452532 249.55142405 -147.02452532 249.55142405 -148.0625 246.4375 C-151.00955108 245.15298035 -151.00955108 245.15298035 -154.66015625 244.1328125 C-155.32784531 243.92695526 -155.99553436 243.72109802 -156.68345642 243.50900269 C-158.82728194 242.84849721 -160.97534625 242.20376406 -163.125 241.5625 C-184.54870925 235.16685322 -184.54870925 235.16685322 -190.375 228 C-190.82488281 227.46503906 -191.27476562 226.93007813 -191.73828125 226.37890625 C-195.71942105 220.54224996 -196.52014045 216.05098902 -196.49609375 209.1640625 C-196.5013356 208.28148773 -196.50657745 207.39891296 -196.51197815 206.48959351 C-196.51838017 204.62881519 -196.517085 202.7679963 -196.50854492 200.90722656 C-196.50004666 198.07803314 -196.5288019 195.25086872 -196.56054688 192.421875 C-196.56215954 190.60677143 -196.5615801 188.79166433 -196.55859375 186.9765625 C-196.56982773 186.13985016 -196.58106171 185.30313782 -196.59263611 184.44107056 C-196.50225575 176.72502365 -193.87032413 170.67130354 -188.375 165.1875 C-187.77300781 164.56359375 -187.17101562 163.9396875 -186.55078125 163.296875 C-181.06708863 159.19917062 -175.21687377 157.3695052 -168.55859375 156 C-156.18240272 153.84115383 -156.18240272 153.84115383 -146.05419922 147.16162109 C-142.84050488 141.60191939 -141.34014693 135.6807165 -140.0625 129.4375 C-139.7325 128.4475 -139.4025 127.4575 -139.0625 126.4375 C-139.9789311 124.11319761 -139.9789311 124.11319761 -141.44921875 121.6484375 C-141.97580078 120.70613281 -142.50238281 119.76382813 -143.04492188 118.79296875 C-143.88893555 117.31763672 -143.88893555 117.31763672 -144.75 115.8125 C-158.12117923 92.17898036 -158.12117923 92.17898036 -154.40234375 76.6875 C-152.12353727 71.00528123 -148.28692317 66.77272771 -144.0625 62.4375 C-143.24217285 61.5727002 -143.24217285 61.5727002 -142.40527344 60.69042969 C-140.49192133 58.67610913 -138.56098371 56.68006629 -136.625 54.6875 C-136.00455811 54.03700684 -135.38411621 53.38651367 -134.74487305 52.71630859 C-127.89386874 45.78373404 -120.94639606 42.32602559 -111.125 42.0625 C-101.46752241 42.05673296 -94.45466365 45.06588933 -86.57421875 50.5 C-78.12098514 56.52597617 -78.12098514 56.52597617 -68.25341797 58.15136719 C-62.78076018 56.62944712 -57.81769779 54.20119735 -52.92163086 51.34643555 C-51.0625 50.4375 -51.0625 50.4375 -48.0625 50.4375 C-47.91554687 49.87546875 -47.76859375 49.3134375 -47.6171875 48.734375 C-46.78840089 45.62880678 -45.92760898 42.53316982 -45.0625 39.4375 C-44.84787109 38.66035645 -44.63324219 37.88321289 -44.41210938 37.08251953 C-43.68432008 34.46759062 -42.93742924 31.8586584 -42.1875 29.25 C-41.95530762 28.40727539 -41.72311523 27.56455078 -41.48388672 26.69628906 C-38.72492687 17.23752826 -34.19268364 10.11936599 -26.0625 4.4375 C-17.58558424 0.10697008 -9.35955612 -0.14456713 0 0 Z " fill="#000000" transform="translate(196.0625,117.5625)"/>
<path d="M0 0 C1.02857347 0.89797108 2.05350458 1.80013653 3.07421875 2.70703125 C3.97527344 3.50753906 4.87632812 4.30804688 5.8046875 5.1328125 C26.49346974 24.73102327 39.18722035 53.13942314 40.2890625 81.53515625 C41.10282275 114.01049604 30.35433344 143.68773575 8.1796875 167.6328125 C-16.11419696 191.56611983 -45.78010166 201.23117234 -79.34051514 201.01055908 C-88.994812 200.88534539 -97.7624097 199.6978695 -106.92578125 196.70703125 C-107.6233252 196.48208984 -108.32086914 196.25714844 -109.03955078 196.02539062 C-138.08532602 186.40310779 -162.17807255 165.84459166 -176.08984375 138.55078125 C-189.40969059 111.11651636 -191.65004167 79.65417474 -181.92578125 50.70703125 C-171.90910737 21.89555779 -151.75903607 -1.47223403 -124.39086914 -15.22729492 C-83.82979009 -34.58489096 -34.48492238 -29.13478194 0 0 Z M-86.73828125 36.76953125 C-88.74808533 40.04868528 -89.05980569 42.76975852 -89.1027832 46.52636719 C-89.11561844 47.50458435 -89.12845367 48.48280151 -89.14167786 49.49066162 C-89.14906479 50.54690735 -89.15645172 51.60315308 -89.1640625 52.69140625 C-89.17213425 53.78036194 -89.18020599 54.86931763 -89.18852234 55.99127197 C-89.20235899 58.29787607 -89.21308302 60.60450062 -89.22094727 62.91113281 C-89.23814634 66.42943392 -89.28203596 69.94679203 -89.32617188 73.46484375 C-89.33630022 75.70702435 -89.34481588 77.94921293 -89.3515625 80.19140625 C-89.36907059 81.23955505 -89.38657867 82.28770386 -89.40461731 83.36761475 C-89.37277459 94.15204927 -84.91378147 99.1087692 -77.45117188 106.640625 C-76.04641602 108.03474609 -76.04641602 108.03474609 -74.61328125 109.45703125 C-73.6785909 110.41102199 -72.74434275 111.3654462 -71.81054688 112.3203125 C-64.3648328 119.85911721 -64.3648328 119.85911721 -54.51953125 122.9921875 C-48.56809748 122.35929249 -44.81090948 120.30245993 -40.92578125 115.70703125 C-39.2156622 112.88161717 -38.60930137 110.689214 -38.55078125 107.39453125 C-38.50824219 106.31751953 -38.50824219 106.31751953 -38.46484375 105.21875 C-39.25356723 100.92087543 -41.07749741 97.13961784 -44.55078125 94.44750977 C-45.14246094 94.06780029 -45.73414063 93.68809082 -46.34375 93.296875 C-51.5251488 89.80841521 -56.02379461 86.12124234 -57.33642578 79.6973877 C-58.28802 72.21154038 -58.17919678 64.65685093 -58.01831055 57.12670898 C-58.00179443 56.30117523 -57.98527832 55.47564148 -57.96826172 54.62509155 C-57.92809659 53.0614387 -57.87006647 51.49810102 -57.79077148 49.9359436 C-57.59147082 44.18946822 -58.52150545 39.43554781 -62.4609375 34.96484375 C-70.82089652 28.76436264 -79.44564436 28.47101341 -86.73828125 36.76953125 Z " fill="#000000" transform="translate(408.92578125,311.29296875)"/>
<path d="M0 0 C1.00804687 -0.02835937 2.01609375 -0.05671875 3.0546875 -0.0859375 C10.54308553 1.03827493 15.67953292 7.68146806 20.7421875 12.83203125 C21.55817413 13.65321945 22.37416077 14.47440765 23.21487427 15.32048035 C25.81473644 17.93809193 28.40780654 20.56229571 31 23.1875 C33.58588495 25.80114085 36.17326489 28.41325562 38.76370239 31.02238464 C40.3715895 32.64237817 41.97679812 34.26503625 43.5788269 35.89082336 C47.62775318 39.97544421 51.76576454 43.85592886 56.12411499 47.60688782 C59.79754901 50.85297313 63.24304727 54.33029435 66.7109375 57.79296875 C67.88542953 58.96246819 67.88542953 58.96246819 69.08364868 60.15559387 C70.72357413 61.79049151 72.3621791 63.42671467 73.99951172 65.06420898 C76.50859072 67.57108317 79.02558518 70.06982803 81.54296875 72.56835938 C83.14111362 74.16357313 84.73878679 75.75925962 86.3359375 77.35546875 C87.08797455 78.10032028 87.8400116 78.84517181 88.61483765 79.6125946 C89.30961212 80.31044571 90.0043866 81.00829681 90.72021484 81.72729492 C91.33118011 82.33683517 91.94214539 82.94637543 92.57162476 83.5743866 C96.57595985 88.21605928 96.55316371 92.51871416 96.4375 98.4609375 C95.87147158 103.73915253 93.50184028 106.24271809 89.53271484 109.50683594 C85.19475601 111.88497471 82.07768438 111.89077822 77.2265625 111.765625 C76.39160248 111.75996521 75.55664246 111.75430542 74.69638062 111.74847412 C72.04698734 111.72620223 69.39897984 111.67602523 66.75 111.625 C64.94663421 111.60492302 63.14324708 111.58667435 61.33984375 111.5703125 C56.93436731 111.52636786 52.52991806 111.45740601 48.125 111.375 C48.13388245 112.05658676 48.14276489 112.73817352 48.1519165 113.44041443 C48.24071013 120.56232277 48.30086719 127.68407271 48.34472656 134.80639648 C48.36252053 137.46133686 48.3920388 140.11540532 48.42675781 142.77026367 C48.47551626 146.59565084 48.49802497 150.4204515 48.515625 154.24609375 C48.53627014 155.42457382 48.55691528 156.60305389 48.57818604 157.81724548 C48.58102951 168.36277699 45.45419289 176.67598545 38.125 184.375 C30.40845943 190.45563397 22.96271811 191.68935531 13.35546875 191.7109375 C11.80210564 191.7209227 11.80210564 191.7209227 10.21736145 191.73110962 C8.03123748 191.74121128 5.84508283 191.74592741 3.65893555 191.74560547 C0.33394912 191.74997183 -2.98970183 191.78630038 -6.31445312 191.82421875 C-8.44530799 191.83008896 -10.57616912 191.83405698 -12.70703125 191.8359375 C-13.69169876 191.85030853 -14.67636627 191.86467957 -15.69087219 191.87948608 C-25.52955342 191.81514691 -33.73529021 188.1717543 -40.875 181.375 C-45.56044791 175.42900011 -48.13660275 169.18920793 -48.10205078 161.55322266 C-48.10189972 160.43251373 -48.10174866 159.31180481 -48.10159302 158.15713501 C-48.09127045 156.96317108 -48.08094788 155.76920715 -48.0703125 154.5390625 C-48.0674826 153.30457367 -48.06465271 152.07008484 -48.06173706 150.79818726 C-48.05056522 146.86535851 -48.02546564 142.93275963 -48 139 C-47.98883825 136.32943041 -47.98084119 133.65886299 -47.97265625 130.98828125 C-47.95063565 124.45044275 -47.91718759 117.9127378 -47.875 111.375 C-49.55456787 111.4064209 -49.55456787 111.4064209 -51.26806641 111.43847656 C-55.43883377 111.51110426 -59.60954568 111.55688211 -63.78076172 111.59472656 C-65.58294081 111.61479033 -67.38505521 111.64204813 -69.18701172 111.67675781 C-71.78369136 111.72550829 -74.37950729 111.74802082 -76.9765625 111.765625 C-78.17691635 111.79659271 -78.17691635 111.79659271 -79.40151978 111.82818604 C-84.71416147 111.83029705 -87.63922625 110.85840331 -91.875 107.375 C-96.28915841 102.72851746 -96.34258261 98.48706934 -96.40625 92.375 C-95.05904382 84.76724747 -88.26295927 79.48701974 -83.015625 74.28515625 C-81.72081207 72.99103065 -81.72081207 72.99103065 -80.39984131 71.67076111 C-78.5765458 69.85047966 -76.75082747 68.03262223 -74.92285156 66.21704102 C-72.14334701 63.45572694 -69.37186206 60.68656139 -66.6015625 57.91601562 C-64.82338636 56.14275805 -63.04475517 54.36995664 -61.265625 52.59765625 C-60.44451233 51.7776564 -59.62339966 50.95765656 -58.77740479 50.11280823 C-54.58092829 45.95033705 -50.30393838 41.96499927 -45.82672119 38.10780334 C-42.32916467 35.0025557 -39.07553191 31.65722319 -35.796875 28.32421875 C-34.29179736 26.80651101 -32.78658516 25.2889367 -31.28125 23.77148438 C-28.94013586 21.40544902 -26.60067022 19.0378256 -24.26367188 16.66772461 C-21.98743832 14.36135327 -19.705077 12.06118884 -17.421875 9.76171875 C-16.72390808 9.05029221 -16.02594116 8.33886566 -15.30682373 7.60588074 C-14.65224182 6.94792007 -13.99765991 6.28995941 -13.32324219 5.61206055 C-12.75224792 5.03360886 -12.18125366 4.45515717 -11.59295654 3.85917664 C-7.91068542 0.67798978 -4.8113249 0.06121278 0 0 Z " fill="#000000" transform="translate(415.875,0.625)"/>
<path d="M0 0 C2.73150567 2.7798509 4.79039909 5.41987586 6.765625 8.796875 C6.55410653 11.34001573 6.08972906 12.46410505 4.3046875 14.296875 C3.35722656 15.039375 3.35722656 15.039375 2.390625 15.796875 C-20.56106195 35.14186829 -34.16221344 63.07397322 -41.234375 91.796875 C-53.60997748 92.94809384 -66.12661104 86.54150615 -75.515625 78.953125 C-86.08751785 69.03181017 -92.48108536 55.63928889 -93.40234375 41.15625 C-93.50866901 26.95119545 -89.78282833 13.61543138 -80.234375 2.796875 C-79.66074219 2.13042969 -79.08710938 1.46398437 -78.49609375 0.77734375 C-69.38083013 -9.09280712 -57.07810022 -15.02998665 -43.703125 -16.13671875 C-26.86026157 -16.58977046 -12.4327634 -11.42196963 0 0 Z " fill="#000000" transform="translate(235.234375,277.203125)"/>
</svg>
