<?xml version="1.0" encoding="UTF-8"?>
<svg version="1.1" xmlns="http://www.w3.org/2000/svg" width="512" height="512">
<path d="M0 0 C0.60150879 0.32081543 1.20301758 0.64163086 1.82275391 0.97216797 C16.22851679 8.70735944 31.67836521 18.518736 42.6328125 30.8359375 C43.30957031 31.41214844 43.30957031 31.41214844 44 32 C46.03182806 31.82781118 48.06361224 31.63350673 50.08203125 31.34375 C62.45175149 29.88654065 73.64399516 30.50035553 84.25 37.625 C92.51244466 44.36050417 96.60680229 53.16066577 98.6875 63.375 C99.66804711 74.74934644 99.14791088 86.07540971 93.70703125 96.34765625 C92.09176605 99.88258766 91.80325233 101.8295487 92.96484375 105.55078125 C93.59442485 107.14932179 94.25363816 108.73641713 94.9375 110.3125 C95.62543348 112.08064734 96.30625574 113.85157554 96.98046875 115.625 C97.32513184 116.51960937 97.66979492 117.41421875 98.02490234 118.3359375 C114.67885567 163.83617251 109.67690539 219.33645934 90 263 C84.23614683 275.1462662 78.04957721 287.19540496 70 298 C69.39986084 298.80775879 69.39986084 298.80775879 68.78759766 299.63183594 C51.54191945 322.66495895 31.00334511 341.63881093 6 356 C5.37963867 356.35803711 4.75927734 356.71607422 4.12011719 357.08496094 C-19.61594684 370.64002871 -45.93050411 378.65215892 -73 382 C-74.01449219 382.13148438 -75.02898437 382.26296875 -76.07421875 382.3984375 C-106.95880853 385.6587223 -137.53046108 380.77613794 -166.62890625 370.453125 C-172.82011448 368.15958137 -172.82011448 368.15958137 -179.203125 368.70703125 C-179.87859375 369.07183594 -180.5540625 369.43664062 -181.25 369.8125 C-193.35137466 375.65105973 -207.74884921 375.55966505 -220.33984375 371.1875 C-230.47169532 367.03084294 -237.2430646 360.7945815 -242.16796875 351.0625 C-244.20033296 346.02452674 -244.15312703 340.98788654 -244.125 335.625 C-244.13080078 334.53058594 -244.13080078 334.53058594 -244.13671875 333.4140625 C-244.13026235 329.79847995 -243.98384907 326.93846628 -243.0546875 323.3984375 C-242.65665777 320.09894797 -242.65665777 320.09894797 -244.27294922 318.28491211 C-245.49299444 317.09223647 -246.74354502 315.930234 -248.01757812 314.79541016 C-251.1839728 311.92771724 -253.67253924 308.58045573 -256.25 305.1875 C-256.80647217 304.45539307 -257.36294434 303.72328613 -257.9362793 302.96899414 C-290.47242461 259.41619982 -304.90446695 204.54774439 -297.40234375 150.58935547 C-290.64149455 107.07869612 -271.26674716 68.72698496 -241 37 C-240.20078125 36.14792969 -239.4015625 35.29585937 -238.578125 34.41796875 C-231.94179131 27.53223036 -224.66195453 21.6874214 -217 16 C-216.45972168 15.59894043 -215.91944336 15.19788086 -215.36279297 14.78466797 C-153.0196464 -30.96947994 -68.01111444 -36.71995004 0 0 Z M-230.57958984 58.43603516 C-262.52794945 93.61327675 -279.04054095 141.25889917 -276.875 188.625 C-274.56263751 224.24309029 -262.80197772 258.35164066 -241.5625 287.125 C-240.80018066 288.16551514 -240.80018066 288.16551514 -240.02246094 289.22705078 C-238.75928894 290.88035739 -237.38766286 292.44970389 -236 294 C-235.01 294 -234.02 294 -233 294 C-232.75991211 293.44876465 -232.51982422 292.8975293 -232.27246094 292.32958984 C-227.43956403 281.30212847 -222.36624362 270.46230883 -216.625 259.875 C-216.12581055 258.94606934 -215.62662109 258.01713867 -215.11230469 257.06005859 C-214.63438477 256.19203613 -214.15646484 255.32401367 -213.6640625 254.4296875 C-213.03685303 253.28862549 -213.03685303 253.28862549 -212.39697266 252.12451172 C-210.37506484 249.04960053 -208.37581922 246.45040236 -204.81640625 245.28515625 C-204.07261719 245.21167969 -203.32882813 245.13820313 -202.5625 245.0625 C-201.82128906 244.97097656 -201.08007812 244.87945312 -200.31640625 244.78515625 C-197.16625955 245.07732837 -195.56852132 246.15441738 -193 248 C-191.22998047 250.59008789 -191.22998047 250.59008789 -189.6171875 253.72265625 C-189.01253662 254.88796875 -188.40788574 256.05328125 -187.78491211 257.25390625 C-187.14698754 258.52279119 -186.51038151 259.79233975 -185.875 261.0625 C-185.54807159 261.70670898 -185.22114319 262.35091797 -184.88430786 263.01464844 C-159.66132528 312.73476134 -159.66132528 312.73476134 -159.9375 339.375 C-159.94201172 340.20644531 -159.94652344 341.03789062 -159.95117188 341.89453125 C-159.96286836 343.92971897 -159.98080065 345.96486923 -160 348 C-119.02648436 366.32721796 -70.58853145 363.36252948 -29.27172852 348 C14.1999047 330.99887242 50.31896518 296.90296623 69.1953125 254.14453125 C74.15901632 242.41393482 77.98707309 230.36937229 81 218 C81.17934082 217.2874707 81.35868164 216.57494141 81.54345703 215.84082031 C89.50632582 182.61343735 83.59098937 146.77296811 73 115 C71.94425781 115.05800781 70.88851563 115.11601562 69.80078125 115.17578125 C42.33045588 116.21429739 17.6804527 104.34445596 -6.5625 92.6875 C-7.17955811 92.3912674 -7.79661621 92.09503479 -8.43237305 91.78982544 C-27.86869282 82.41614042 -27.86869282 82.41614042 -30 77 C-30.46347727 71.90174999 -30.03421476 69.11036568 -27 65 C-24.37475586 63.18237305 -24.37475586 63.18237305 -21.21484375 61.51171875 C-20.05178711 60.89111572 -18.88873047 60.2705127 -17.69042969 59.63110352 C-16.43981577 58.98253591 -15.18883235 58.33468038 -13.9375 57.6875 C-12.66934522 57.01992672 -11.40144243 56.35187454 -10.13378906 55.68334961 C-0.60905566 50.69323444 9.06447461 46.11351779 19 42 C17.66259624 37.98778871 15.05372103 36.45156676 11.75 34.0625 C11.08959717 33.58449951 10.42919434 33.10649902 9.7487793 32.61401367 C-11.23325723 17.77611452 -34.09029158 8.03530566 -59 2 C-60.09272217 1.73098877 -60.09272217 1.73098877 -61.20751953 1.45654297 C-122.79639295 -12.90326151 -188.48174354 13.46043421 -230.57958984 58.43603516 Z M47.25 54.9375 C46.44433594 55.15349854 45.63867188 55.36949707 44.80859375 55.59204102 C30.93531867 59.5225359 17.37701433 65.60857458 5 73 C18.6417433 84.30415557 46.28669061 94.93403268 64.0625 94 C68.32144056 93.25725341 70.40766803 91.50727266 73 88 C75.55026928 82.94289667 76.52220934 78.76466839 76.4375 73.0625 C76.43137695 72.3610083 76.42525391 71.6595166 76.41894531 70.93676758 C76.24574504 65.20450475 75.28636781 61.65568774 72 57 C67.86630942 53.11683612 63.8780381 52.77681523 58.43945312 52.84814453 C54.5749419 53.08870958 50.97789449 53.923317 47.25 54.9375 Z M-202 280 C-218.16822262 308.3609043 -218.16822262 308.3609043 -222 340 C-220.22827389 345.21674909 -217.90950014 347.54524993 -213 350 C-204.64156935 352.5861811 -196.64578451 352.5378445 -188.6015625 348.921875 C-184.36095942 346.50304725 -182.41276348 344.81752347 -181 340 C-179.82141811 320.26630839 -191.91324303 296.93441072 -201 280 C-201.33 280 -201.66 280 -202 280 Z " fill="#000000" transform="translate(341,66)"/>
<path d="M0 0 C17.90841141 13.30544623 25.60998295 37.20241048 29.609375 58.19921875 C32.97334117 90.93060956 26.84427855 123.81433358 6.1953125 150.08007812 C-16.30276812 177.5143048 -45.27901136 193.05471152 -80.52685547 196.77294922 C-107.68237923 199.26600323 -136.65146908 192.46156166 -158.1875 175.3125 C-166.38954612 168.4207654 -166.38954612 168.4207654 -167.56640625 163.75390625 C-167.56447266 162.66916016 -167.56447266 162.66916016 -167.5625 161.5625 C-167.58441406 160.84191406 -167.60632813 160.12132812 -167.62890625 159.37890625 C-165.91594512 152.89944457 -159.98762799 149.31596829 -154.6875 145.875 C-142.27977651 137.57827789 -130.43186008 128.59813686 -119 119 C-117.95316415 118.12885921 -116.90628734 117.25776762 -115.859375 116.38671875 C-108.89489615 110.56707152 -102.14223503 104.55508219 -95.49267578 98.37939453 C-93.98086075 96.98231325 -92.45905396 95.59700462 -90.93359375 94.21484375 C-82.51834397 86.58299962 -74.28048387 78.82053147 -66.89453125 70.171875 C-65.02614474 68.02997212 -63.09732949 65.95323287 -61.15429688 63.87915039 C-55.69668276 58.03346879 -50.68543771 51.94543735 -45.8046875 45.61328125 C-43.94852693 43.20572799 -42.06023391 40.83134868 -40.1328125 38.48046875 C-33.63038 30.53449623 -27.61269309 22.34743539 -21.80737305 13.87646484 C-10.3937106 -2.735187 -10.3937106 -2.735187 0 0 Z M-5 30 C-5.95867638 31.12004911 -6.87482632 32.27652323 -7.7734375 33.4453125 C-8.34529785 34.18555664 -8.9171582 34.92580078 -9.50634766 35.68847656 C-10.43133057 36.89455566 -10.43133057 36.89455566 -11.375 38.125 C-12.66127403 39.78920497 -13.94773428 41.45326602 -15.234375 43.1171875 C-16.48964675 44.74474276 -17.74485901 46.3723439 -19 48 C-28.90618145 60.83044614 -39.2642129 73.17653435 -50.28515625 85.06640625 C-52.11617119 87.0449562 -53.93747095 89.02867752 -55.74609375 91.02734375 C-63.70568947 99.81224318 -71.82094882 108.42914613 -80.8515625 116.1328125 C-83.03211189 118.02790815 -85.1539529 119.97953836 -87.27099609 121.94506836 C-93.31879393 127.5551336 -99.55562955 132.84620176 -106 138 C-107.16584965 138.94601712 -108.33118752 139.89266517 -109.49609375 140.83984375 C-116.6496862 146.63321961 -123.89262671 152.23216718 -131.42871094 157.52294922 C-132.9868858 158.6352734 -134.49884265 159.81184993 -136 161 C-136 161.66 -136 162.32 -136 163 C-128.96333819 167.08716285 -122.09458663 169.77038067 -114.25 171.8125 C-113.45875732 172.0189917 -112.66751465 172.2254834 -111.85229492 172.43823242 C-86.51975972 178.74026631 -61.35933466 173.49452573 -38.9453125 160.828125 C-24.23646037 151.69849264 -12.50547666 138.95790723 -4 124 C-3.15501953 122.55560547 -3.15501953 122.55560547 -2.29296875 121.08203125 C9.20636005 99.97566825 11.4063803 73.05301097 5 50 C2.74547258 43.03483266 0.05339244 36.12614994 -4 30 C-4.33 30 -4.66 30 -5 30 Z " fill="#000000" transform="translate(356,190)"/>
<path d="M0 0 C3.58552881 1.63687185 4.79315055 2.68972583 7 6 C8.80132418 15.33628314 4.87271788 25.49778554 2.5 34.4375 C1.85455072 36.90642771 1.21253781 39.37619 0.57409668 41.84693909 C0.17819255 43.37513982 -0.22225966 44.90217136 -0.62780762 46.42784119 C-1.3987631 49.3725921 -2 51.94139561 -2 55 C-0.79988281 54.6918335 0.40023438 54.38366699 1.63671875 54.06616211 C6.11346385 52.92063503 10.59476416 51.79389282 15.07763672 50.67260742 C17.01283855 50.18581605 18.94678877 49.69401939 20.87939453 49.19702148 C23.66640901 48.48124265 26.4575107 47.78391377 29.25 47.08984375 C30.10553467 46.86594467 30.96106934 46.64204559 31.8425293 46.41136169 C37.29605027 45.07975259 41.48359842 44.82173581 47 46 C50.56943833 48.58214687 51.7688666 50.20547895 53 54.4375 C53 58.56391469 52.25912999 60.5723545 50 64 C46.85253644 66.83951353 43.8732158 67.79407974 39.79785156 68.84106445 C38.54264709 69.16762527 37.28744263 69.4941861 35.99420166 69.8306427 C34.62653472 70.17561743 33.25867055 70.51981105 31.890625 70.86328125 C30.48054124 71.22223415 29.07052845 71.581466 27.6605835 71.94096375 C24.70668696 72.69139858 21.75095517 73.43405296 18.79394531 74.17211914 C15.01864455 75.11574134 11.2504802 76.085069 7.4834938 77.06127644 C4.57320837 77.81116692 1.65876554 78.54375009 -1.25708771 79.27165794 C-2.64758102 79.62163029 -4.03656509 79.97766028 -5.42388153 80.34002113 C-19.12095301 83.90323142 -19.12095301 83.90323142 -26 81 C-28.94110256 77.83831475 -29.94455982 76.01895947 -30.17959595 71.6991272 C-30.00530497 68.10926615 -29.47869974 64.98725293 -28.62646484 61.50146484 C-28.32549896 60.25682465 -28.02453308 59.01218445 -27.71444702 57.72982788 C-27.38078573 56.38998782 -27.04626149 55.0503624 -26.7109375 53.7109375 C-26.36650947 52.32046403 -26.02216061 50.92997094 -25.67788696 49.53945923 C-24.95606717 46.63472714 -24.2268842 43.731949 -23.49365234 40.83007812 C-22.55828583 37.12189443 -21.65143435 33.40735892 -20.75121117 29.6905117 C-20.05072657 26.81954641 -19.33021412 23.95388147 -18.60417557 21.08928299 C-18.26118991 19.72204385 -17.92551711 18.3529475 -17.59751511 16.98203659 C-14.70738206 4.9584755 -14.70738206 4.9584755 -10.87963867 1.66064453 C-6.6284808 -0.7909346 -4.84096299 -0.61472546 0 0 Z " fill="#000000" transform="translate(264,114)"/>
<path d="M0 0 C2.82424288 2.19022918 4.41508603 3.83017207 6 7 C6.21917008 11.75559841 5.75436063 15.88524633 4.62646484 20.49853516 C4.32549896 21.74317535 4.02453308 22.98781555 3.71444702 24.27017212 C3.38078573 25.61001218 3.04626149 26.9496376 2.7109375 28.2890625 C2.36650947 29.67953597 2.02216061 31.07002906 1.67788696 32.46054077 C0.95606717 35.36527286 0.2268842 38.268051 -0.50634766 41.16992188 C-1.44171417 44.87810557 -2.34856565 48.59264108 -3.24878883 52.3094883 C-3.94927343 55.18045359 -4.66978588 58.04611853 -5.39582443 60.91071701 C-5.73881009 62.27795615 -6.07448289 63.6470525 -6.40248489 65.01796341 C-9.29267105 77.04174547 -9.29267105 77.04174547 -13.12255859 80.3371582 C-17.04709342 82.60510379 -19.6081599 82.96917346 -24 82 C-29.5 79 -29.5 79 -31 76 C-31.85796823 66.08461722 -29.01930642 57.05451767 -26.5 47.5625 C-25.85455072 45.09357229 -25.21253781 42.62381 -24.57409668 40.15306091 C-24.17819255 38.62486018 -23.77774034 37.09782864 -23.37219238 35.57215881 C-22.6012369 32.6274079 -22 30.05860439 -22 27 C-23.17506104 27.30292969 -24.35012207 27.60585938 -25.56079102 27.91796875 C-29.94016283 29.04459731 -34.32229372 30.16015158 -38.70532227 31.27246094 C-40.59834036 31.75449067 -42.49060737 32.23948047 -44.38208008 32.72753906 C-47.10824384 33.43041738 -49.83697264 34.12244343 -52.56640625 34.8125 C-53.40522842 35.03123779 -54.2440506 35.24997559 -55.10829163 35.4753418 C-61.15912255 36.98904889 -66.52277359 38.26198327 -72.3125 35.3125 C-75.19392326 32.8331358 -76.22777747 31.68950764 -77 28 C-76.80864365 22.64202214 -75.7902426 19.77819096 -72 16 C-69.21298334 14.85999649 -66.70817116 14.04702015 -63.8125 13.3125 C-62.94262451 13.07901855 -62.07274902 12.84553711 -61.17651367 12.60498047 C-58.46938899 11.89037999 -55.7572754 11.19889874 -53.04199219 10.51605225 C-50.7463718 9.93590308 -48.45324756 9.34641253 -46.16015625 8.75634766 C-41.637242 7.59481909 -37.1101095 6.45103911 -32.57992554 5.31820679 C-30.74647788 4.85895022 -28.91380058 4.3966063 -27.0819397 3.93106079 C-24.45981559 3.2674344 -21.8341633 2.62004043 -19.20703125 1.9765625 C-18.42835693 1.77686356 -17.64968262 1.57716461 -16.84741211 1.37141418 C-11.32001538 0.04231213 -5.67527975 -0.79091251 0 0 Z " fill="#000000" transform="translate(190,235)"/>
</svg>
