<?xml version="1.0" encoding="UTF-8"?>
<svg version="1.1" xmlns="http://www.w3.org/2000/svg" width="512" height="512">
<path d="M0 0 C0.6770549 -0.00686325 1.3541098 -0.0137265 2.05168152 -0.02079773 C4.27807893 -0.03902234 6.503769 -0.03523582 8.73022461 -0.02954102 C10.28291553 -0.03410397 11.83560443 -0.03940989 13.38829041 -0.04542542 C16.63719914 -0.05434721 19.88586191 -0.05194302 23.13476562 -0.04199219 C27.29683083 -0.03048605 31.45804967 -0.05074299 35.6200037 -0.07990932 C38.82422772 -0.09825649 42.02824816 -0.0979822 45.23251152 -0.0922718 C46.7671064 -0.0921185 48.301715 -0.09817051 49.83625984 -0.11056328 C51.98122455 -0.12544973 54.12461567 -0.11481737 56.26953125 -0.09765625 C57.48911026 -0.09749008 58.70868927 -0.09732391 59.96522522 -0.09715271 C63.67780108 0.50215719 64.86539198 1.40165904 67.07006836 4.40405273 C67.57006836 7.90405273 67.57006836 7.90405273 67.07006836 11.40405273 C64.85143807 14.31122346 63.55061907 15.24386916 60.07006836 16.40405273 C39.94006836 16.40405273 19.81006836 16.40405273 -0.92993164 16.40405273 C-0.92993164 92.63405273 -0.92993164 168.86405273 -0.92993164 247.40405273 C18.54006836 247.40405273 38.01006836 247.40405273 58.07006836 247.40405273 C62.07006836 252.40405273 62.07006836 252.40405273 62.00756836 256.02905273 C61.11218179 259.25244439 60.7189995 260.49682231 58.07006836 262.40405273 C55.45485051 263.71166166 53.53893435 263.52402821 50.6105957 263.51757812 C49.4695639 263.51750259 48.3285321 263.51742706 47.15292358 263.51734924 C45.91644073 263.51218796 44.67995789 263.50702667 43.40600586 263.50170898 C42.14366119 263.50029404 40.88131653 263.49887909 39.58071899 263.49742126 C36.22368537 263.49276351 32.86671936 263.48377681 29.50970459 263.47271729 C26.0845194 263.46249043 22.65932703 263.45786615 19.23413086 263.45288086 C12.51273851 263.44268457 5.79146488 263.42311151 -0.92993164 263.40405273 C-0.43493164 278.74905273 -0.43493164 278.74905273 0.07006836 294.40405273 C52.21006836 294.40405273 104.35006836 294.40405273 158.07006836 294.40405273 C153.50839666 281.85945555 148.83096754 273.69173568 137.07006836 267.40405273 C130.57371238 264.6784689 124.73950135 263.97432047 117.74194336 263.99780273 C116.78991028 263.98696655 115.8378772 263.97613037 114.85699463 263.96496582 C110.82194588 263.91942631 106.78696872 263.90759168 102.75170898 263.89282227 C99.78988861 263.87712861 96.82860291 263.84414883 93.86694336 263.81030273 C92.95853699 263.81332397 92.05013062 263.81634521 91.11419678 263.81945801 C86.30126233 263.76230619 82.95194084 263.58808234 79.07006836 260.40405273 C77.5241996 257.31231522 77.77647315 254.80975721 78.07006836 251.40405273 C79.4375 249.21069336 79.4375 249.21069336 82.07006836 247.40405273 C85.54502526 246.79913237 88.98382471 246.84397174 92.50366211 246.87280273 C93.53258072 246.86897583 94.56149933 246.86514893 95.62159729 246.86120605 C97.80291723 246.85848372 99.98426964 246.86586728 102.16552734 246.88256836 C105.46455229 246.9037762 108.76135002 246.88287937 112.06030273 246.85717773 C130.40150263 246.83211598 143.50755705 249.67213709 158.07006836 261.40405273 C158.08219864 259.65424858 158.08219864 259.65424858 158.09457397 257.86909485 C158.17204605 246.87759461 158.25978818 235.88621799 158.35759544 224.89487934 C158.40754922 219.24407216 158.4538795 213.59328359 158.49194336 207.94238281 C158.52880753 202.48934125 158.57517086 197.03645575 158.62813187 191.58354759 C158.64666974 189.50276615 158.66177994 187.42195127 158.67341232 185.34111977 C158.69028495 182.42744581 158.71932288 179.51412876 158.7512207 176.60058594 C158.75446098 175.30909637 158.75446098 175.30909637 158.75776672 173.99151611 C158.8308808 168.76638218 159.11065523 164.58117844 162.75756836 160.52905273 C166.17151221 158.86821519 168.45764059 159.48452567 172.07006836 160.40405273 C174.88389979 162.37373473 175.39930493 164.12691086 176.07006836 167.40405273 C176.16539235 168.75158909 176.21564515 170.10282974 176.22828674 171.45367432 C176.24296997 172.64831802 176.24296997 172.64831802 176.25794983 173.86709595 C176.26370529 174.73168427 176.26946075 175.59627258 176.27539062 176.48706055 C176.28529022 177.40448029 176.29518982 178.32190002 176.3053894 179.26712036 C176.33695678 182.2971133 176.36174306 185.32712192 176.38647461 188.35717773 C176.40704824 190.45896816 176.42804483 192.56075448 176.44944763 194.66253662 C176.50462598 200.1928373 176.55405398 205.72317507 176.60229492 211.25354004 C176.65254085 216.89749448 176.70821078 222.54139512 176.76342773 228.18530273 C176.87095751 239.25817343 176.97241402 250.33109085 177.07006836 261.40405273 C177.82030777 260.8478978 178.57054718 260.29174286 179.34352112 259.71873474 C180.33037399 258.99283646 181.31722687 258.26693817 182.33398438 257.51904297 C183.31109879 256.79788803 184.2882132 256.07673309 185.29493713 255.33372498 C188.51656764 253.09358191 191.31399579 251.74948709 195.00756836 250.46655273 C196.59891602 249.89614258 196.59891602 249.89614258 198.22241211 249.31420898 C202.49196507 247.94959192 206.01834445 247.27948212 210.52435303 247.28379822 C211.63210587 247.28242355 212.7398587 247.28104889 213.88117981 247.27963257 C215.69702827 247.28502548 215.69702827 247.28502548 217.54956055 247.29052734 C219.46701332 247.2903083 219.46701332 247.2903083 221.42320251 247.29008484 C224.92493416 247.28979798 228.42663153 247.29567674 231.92835522 247.3026588 C235.58921828 247.30891085 239.25008213 247.3094976 242.91094971 247.3106842 C249.84172887 247.31379205 256.77249226 247.32199809 263.70326447 247.33203369 C271.59437783 247.34321178 279.48549193 247.34870956 287.37661123 247.35372913 C303.60777284 247.36418115 319.83891859 247.38177003 336.07006836 247.40405273 C336.06545939 246.83659741 336.06085043 246.26914209 336.0561018 245.68449116 C335.94563836 231.87151903 335.86323898 218.05862437 335.8110075 204.24530506 C335.78490022 197.56520425 335.74948056 190.8854838 335.69287109 184.20556641 C335.63859343 177.76055961 335.60865629 171.3158594 335.59568214 164.87064171 C335.58643479 162.41019551 335.56837708 159.94976633 335.54141808 157.48945045 C335.505186 154.04630739 335.50012082 150.60443546 335.50244141 147.16113281 C335.48446503 146.14117722 335.46648865 145.12122162 335.44796753 144.07035828 C335.48241257 139.35540019 335.52174806 137.13575817 338.41804504 133.27079773 C341.07006836 131.40405273 341.07006836 131.40405273 344.07006836 130.77905273 C348.12254392 131.62331848 349.46945922 133.22507088 352.07006836 136.40405273 C352.69648075 139.49572468 352.69648075 139.49572468 352.69825745 143.02571106 C352.70535183 143.67770703 352.71244622 144.32970301 352.71975559 145.00145644 C352.73731138 147.17898555 352.71924608 149.35472369 352.70117188 151.53222656 C352.70631185 153.09632682 352.71359372 154.66042128 352.72285461 156.22450256 C352.74137178 160.46862802 352.72842652 164.71212535 352.70876431 168.95622468 C352.69237025 173.40211348 352.70119217 177.84796271 352.70628357 182.29386902 C352.7108051 189.76307188 352.69493457 197.23202438 352.66699219 204.70117188 C352.63497513 213.32576646 352.63494216 221.94990863 352.65220696 230.57453519 C352.66809791 238.87994969 352.66131972 247.18519898 352.64426994 255.49060631 C352.6374129 259.02034615 352.63841814 262.54995303 352.6458149 266.07969093 C352.65350309 270.24213592 352.64126951 274.40406934 352.61396599 278.56642723 C352.60710619 280.09014747 352.60695829 281.61391571 352.61418152 283.13763428 C352.67968997 298.76266296 352.67968997 298.76266296 348.07006836 304.40405273 C341.06892101 310.98330391 334.2870625 311.26113155 325.0267334 311.16595459 C323.61055897 311.17287661 322.19439533 311.1824117 320.77825403 311.19431806 C316.90492766 311.21927797 313.03249255 311.20702661 309.15916371 311.18840075 C304.97500133 311.17479497 300.79098952 311.19579434 296.6068573 311.21228027 C288.41737 311.23893331 280.228213 311.23320941 272.03871286 311.21580443 C265.38184489 311.2022435 258.72506936 311.20042099 252.06819153 311.20694733 C251.12006054 311.20786672 250.17192955 311.20878612 249.19506732 311.20973338 C247.26884168 311.21165177 245.34261606 311.21359705 243.41639048 311.21556893 C225.36226858 311.23267036 207.3083296 311.21301858 189.25423771 311.18076673 C173.7694165 311.15396084 158.28486517 311.15861721 142.80004883 311.1862793 C124.80969917 311.21840231 106.81950975 311.23102247 88.82913542 311.21260571 C86.91007203 311.21069446 84.99100862 311.20880823 83.07194519 311.20694733 C82.12777667 311.20602167 81.18360814 311.20509602 80.21082845 311.20414232 C73.5634308 311.19896593 66.91613494 311.2076971 60.26875305 311.22182465 C52.16561374 311.23866784 44.06282306 311.23406728 35.95972359 311.20214018 C31.82680715 311.1863917 27.69447157 311.18016096 23.56155968 311.2000351 C19.77507663 311.2179677 15.98971058 311.20800419 12.20332831 311.17616978 C10.1912907 311.16633529 8.17917502 311.18583444 6.16721964 311.20651317 C-1.66692836 311.1049728 -7.28174054 310.12817857 -12.92993164 304.40405273 C-17.45937319 298.67009754 -17.49338795 292.54348586 -17.41094971 285.4954834 C-17.41436741 284.41875728 -17.41778511 283.34203116 -17.42130637 282.23267698 C-17.42787781 278.6365338 -17.40592026 275.04114241 -17.3840332 271.44506836 C-17.38290457 268.86264056 -17.38353889 266.28021148 -17.38580322 263.69778442 C-17.38789629 258.1440711 -17.37539193 252.59054638 -17.35285187 247.03688049 C-17.32028451 239.00733629 -17.30992003 230.97788289 -17.3048999 222.9482798 C-17.29615465 209.91948841 -17.26956005 196.89079744 -17.23168945 183.86206055 C-17.19494938 171.20907085 -17.16664741 158.55610847 -17.1496582 145.90307617 C-17.14860731 145.12258512 -17.14755642 144.34209406 -17.14647368 143.53795177 C-17.14125336 139.62229035 -17.13619857 135.70662873 -17.13122606 131.79096699 C-17.08978802 99.32858611 -17.01825649 66.86634003 -16.92993164 34.40405273 C-32.27493164 34.89905273 -32.27493164 34.89905273 -47.92993164 35.40405273 C-48.06568056 69.59615689 -48.17304887 103.78816639 -48.23632362 137.98048176 C-48.24382751 142.02076108 -48.25159347 146.06103985 -48.25952148 150.10131836 C-48.26109535 150.90563662 -48.26266921 151.70995489 -48.26429076 152.53864643 C-48.29037094 165.54774218 -48.33766302 178.55667822 -48.39284842 191.56567934 C-48.44903498 204.9224739 -48.48230066 218.27918502 -48.49446261 231.6360929 C-48.50267938 239.87253351 -48.52859385 248.1085226 -48.57743044 256.34482417 C-48.60924201 261.99922578 -48.61871071 267.65339531 -48.61093991 273.30787984 C-48.60711145 276.56634616 -48.61613751 279.82386425 -48.64516449 283.0822258 C-49.23138527 302.64989124 -49.23138527 302.64989124 -40.18649864 319.35782242 C-32.57482699 326.85871145 -22.58340696 328.52622253 -12.2868681 328.53268719 C-10.98327459 328.53591163 -9.67968109 328.53913608 -8.33658475 328.54245824 C-6.9020173 328.5409873 -5.46744994 328.5394196 -4.03288269 328.5377655 C-2.49954193 328.53963475 -0.96620164 328.5419359 0.5671379 328.54463083 C4.77340723 328.55074118 8.97965666 328.55061613 13.18592942 328.54943645 C17.72523881 328.54923225 22.26454184 328.55475302 26.80384827 328.55949402 C35.69435478 328.56779685 44.58485466 328.57054869 53.47536472 328.5711064 C60.7024209 328.57158171 67.92947489 328.57363724 75.15653038 328.57680702 C95.65007839 328.58561244 116.14362116 328.59022655 136.63717107 328.58947655 C137.74174837 328.58943659 138.84632566 328.58939664 139.984375 328.58935547 C141.09030208 328.58931459 142.19622916 328.58927371 143.33566918 328.58923159 C161.26015539 328.58882511 179.1846206 328.59839547 197.10910074 328.61249384 C215.51727414 328.62685832 233.92543729 328.63376398 252.33361644 328.63290006 C262.66703376 328.63256812 273.00042905 328.63531373 283.33384132 328.64607811 C292.13150709 328.65518403 300.92914086 328.65735758 309.7268093 328.65056869 C314.21408466 328.64730402 318.7012986 328.64724493 323.18856812 328.65592194 C327.29987258 328.66379008 331.41106696 328.66235228 335.52236875 328.6536378 C337.00617737 328.65210352 338.48999421 328.65391628 339.97379313 328.65949788 C357.70895697 328.76430522 357.70895697 328.76430522 372.98022461 320.68139648 C380.46690682 312.68606495 382.67382907 304.86254942 382.55108643 294.07151794 C382.55450413 292.96126898 382.55792182 291.85102002 382.56144309 290.70712715 C382.56800814 287.00354102 382.54606748 283.30068684 382.52416992 279.59716797 C382.52304115 276.93575922 382.52349993 274.27439469 382.52593994 271.61299133 C382.5280321 265.89177882 382.51553725 260.1707495 382.49298859 254.44958305 C382.46040889 246.17788246 382.45005549 237.90626999 382.44503662 229.63451219 C382.4362933 216.21250876 382.40970394 202.79060286 382.37182617 189.36865234 C382.3350811 176.3344776 382.30678158 163.3003294 382.28979492 150.26611328 C382.28821858 149.05992684 382.28821858 149.05992684 382.28661039 147.82937299 C382.28139005 143.79510963 382.27633526 139.76084608 382.27136278 135.72658241 C382.22993075 102.28566554 382.15840381 68.84487795 382.07006836 35.40405273 C372.17006836 35.07405273 362.27006836 34.74405273 352.07006836 34.40405273 C352.09625244 36.68013428 352.12243652 38.95621582 352.14941406 41.30126953 C352.23229559 48.82489449 352.2875049 56.34853972 352.32912922 63.87250042 C352.35521324 68.43396355 352.39058898 72.99495861 352.44726562 77.55615234 C352.50162879 81.95875962 352.53149789 86.36091696 352.54445457 90.763834 C352.55368681 92.44279882 352.57171568 94.12173926 352.59871864 95.80051231 C352.6350683 98.15416873 352.64001155 100.50597093 352.63769531 102.85986328 C352.65567169 103.55254303 352.67364807 104.24522278 352.69216919 104.95889282 C352.65160597 108.77335061 352.13758359 110.3197312 349.72209167 113.33650208 C347.07006836 115.40405273 347.07006836 115.40405273 344.07006836 116.02905273 C339.93399619 115.16737103 338.64853737 113.73777923 336.07006836 110.40405273 C335.36586202 107.33255655 335.43689637 104.34685148 335.50244141 101.20751953 C335.50171127 100.28995377 335.50098114 99.372388 335.50022888 98.42701721 C335.50370527 95.40182864 335.5425693 92.37819022 335.58178711 89.35327148 C335.59111504 87.25292298 335.59823124 85.15256359 335.60322571 83.05220032 C335.62229694 77.52979382 335.67139949 72.00804708 335.72674561 66.48590088 C335.77793499 60.84868291 335.80073913 55.21135811 335.82592773 49.57397461 C335.87951755 38.51704445 335.96483242 27.4606035 336.07006836 16.40405273 C335.31917938 16.41071457 334.56829041 16.4173764 333.79464722 16.42424011 C326.70336455 16.48445841 319.6121711 16.53008143 312.52070427 16.55948925 C308.87526376 16.57511665 305.23003529 16.59630078 301.5847168 16.63037109 C298.06393487 16.66306991 294.54335635 16.68092775 291.02243423 16.68868446 C289.03164201 16.69689006 287.04093111 16.72029272 285.05026245 16.74394226 C283.82944977 16.74416885 282.60863708 16.74439545 281.35083008 16.74462891 C280.2804953 16.75129074 279.21016052 16.75795258 278.10739136 16.76481628 C274.54096918 16.34120802 272.13664897 15.24600252 269.07006836 13.40405273 C267.5241996 10.31231522 267.77647315 7.80975721 268.07006836 4.40405273 C270.25872386 1.39408103 271.46357797 0.50348659 275.16818237 -0.10388184 C276.38474518 -0.10706421 277.60130798 -0.11024658 278.85473633 -0.11352539 C279.52843262 -0.12053467 280.20212891 -0.12754395 280.89624023 -0.13476562 C283.11866749 -0.15233997 285.3398161 -0.14072377 287.56225586 -0.12719727 C289.11158492 -0.12989301 290.66091232 -0.13377612 292.2102356 -0.13879395 C295.45680861 -0.14468871 298.70294114 -0.13612961 301.94946289 -0.11743164 C306.10130977 -0.09467957 310.25212019 -0.10774057 314.40392876 -0.1317215 C317.60397064 -0.14621299 320.80376907 -0.14155763 324.00381851 -0.13121033 C325.53395842 -0.12855028 327.06412076 -0.13178733 328.59423447 -0.14112854 C330.73895038 -0.15134594 332.88201748 -0.13572272 335.02661133 -0.11352539 C336.24476532 -0.11034302 337.46291931 -0.10716064 338.71798706 -0.10388184 C343.29599013 0.58981435 346.49097834 2.59274359 349.53100586 6.07983398 C349.83264648 6.61995117 350.13428711 7.16006836 350.44506836 7.71655273 C350.76217773 8.24893555 351.07928711 8.78131836 351.40600586 9.32983398 C352.37168088 12.34614833 352.10881447 15.25764096 352.07006836 18.40405273 C352.99754883 18.38834229 353.9250293 18.37263184 354.88061523 18.35644531 C358.35463158 18.30501216 361.82823742 18.26755592 365.30249023 18.23925781 C366.79995143 18.22426385 368.29736941 18.20386168 369.79467773 18.17773438 C387.90160021 17.86991669 387.90160021 17.86991669 394.94506836 23.84155273 C398.09080122 27.63493648 399.31898521 30.24789141 399.32733727 35.18873596 C399.33378616 36.15420034 399.34023505 37.11966473 399.34687936 38.1143856 C399.34223356 39.70131942 399.34223356 39.70131942 399.3374939 41.3203125 C399.34202501 42.44640741 399.34655612 43.57250233 399.35122454 44.73272133 C399.3639227 48.52034182 399.36224464 52.30781951 399.3605957 56.09545898 C399.36548934 58.80561365 399.37332572 61.5157582 399.38095093 64.22590637 C399.39757107 70.83347556 399.40306102 77.44100906 399.40417568 84.0485974 C399.40512614 89.42264187 399.40923634 94.79667458 399.41557693 100.17071533 C399.4331959 115.41479612 399.44241535 130.65884875 399.44091599 145.9029398 C399.44083607 146.72492328 399.44075616 147.54690676 399.44067383 148.39379883 C399.44059207 149.21678939 399.44051031 150.03977995 399.44042607 150.88770962 C399.43961407 164.21014151 399.4587283 177.53246009 399.48695056 190.85485923 C399.5157154 204.54176207 399.52948872 218.22860974 399.52776301 231.91554356 C399.52710011 239.59650516 399.5325476 247.27734815 399.55411911 254.95828247 C399.57237886 261.50194797 399.5766395 268.04544115 399.56310026 274.58912116 C399.55659307 277.92441999 399.55856598 281.25912053 399.57380676 284.59443092 C399.58929886 288.22055377 399.57992342 291.84581875 399.56454468 295.47192383 C399.5748318 296.51203393 399.58511893 297.55214403 399.59571779 298.62377262 C399.47451031 311.6217543 394.83185366 322.1221301 386.03881836 331.59155273 C377.73832044 339.53115944 367.99953996 344.5183817 356.49218082 344.54106712 C355.82961772 344.54371895 355.16705461 344.54637078 354.48441383 344.54910296 C352.25449263 344.5567892 350.02462656 344.55735488 347.79469299 344.55795288 C346.18358296 344.56196796 344.57247393 344.56640626 342.96136612 344.57123244 C338.52608528 344.58319894 334.09081533 344.58884658 329.65552151 344.59341359 C324.87478683 344.59936949 320.09406515 344.61097946 315.31333923 344.6217041 C303.76275208 344.64622986 292.21216062 344.66085627 280.66155544 344.67376417 C277.39879614 344.67747622 274.13603726 344.68144945 270.87327838 344.68551683 C250.61010362 344.71075536 230.34692819 344.73280757 210.08374119 344.74524498 C205.38981181 344.74817466 200.69588245 344.75113633 196.00195312 344.75415039 C194.2519797 344.75526947 194.2519797 344.75526947 192.46665328 344.75641115 C173.57398702 344.76906068 154.68141497 344.80227811 135.78879274 344.84395222 C116.38967982 344.88639252 96.99061509 344.90994251 77.59145588 344.91516554 C66.70060623 344.91857746 55.80990373 344.93030672 44.91909981 344.96326828 C35.64234555 344.99129881 26.36576863 345.00225494 17.08897532 344.99107282 C12.35819777 344.98589373 7.62779141 344.98872413 2.89706802 345.01353836 C-1.44043537 345.0360994 -5.77730244 345.03523815 -10.11481751 345.01633449 C-11.6775118 345.01354403 -13.24024988 345.01907957 -14.80287402 345.03414743 C-30.16210091 345.17310298 -41.78155945 341.29315931 -52.85961914 330.52905273 C-62.26013455 320.52335393 -65.23669085 309.46148222 -65.19735718 296.09338379 C-65.20188829 294.96119777 -65.2064194 293.82901175 -65.21108782 292.66251707 C-65.2237381 288.87254464 -65.22211103 285.0827158 -65.22045898 281.29272461 C-65.22535777 278.57401489 -65.23319259 275.85531521 -65.24081421 273.13661194 C-65.25740142 266.52110536 -65.26292266 259.90563444 -65.26403897 253.2901088 C-65.26499024 247.91275598 -65.26910448 242.5354149 -65.27544022 237.1580658 C-65.29304409 221.90638115 -65.30228008 206.65472462 -65.30077927 191.40302974 C-65.30069936 190.58142885 -65.30061944 189.75982796 -65.30053711 188.91333008 C-65.30045535 188.09072447 -65.30037359 187.26811886 -65.30028935 186.42058581 C-65.29947602 173.08203397 -65.31862755 159.74359493 -65.34681384 146.40507573 C-65.3755388 132.70341191 -65.38935445 119.00180313 -65.38762629 105.30010843 C-65.3869624 97.60984943 -65.39245469 89.91970879 -65.41398239 82.22947693 C-65.4321888 75.68391132 -65.43654582 69.13851778 -65.42296354 62.59293783 C-65.41643175 59.254187 -65.41849549 55.91603589 -65.43367004 52.57727242 C-65.44906346 48.95612585 -65.43985225 45.33584899 -65.42440796 41.71472168 C-65.43469509 40.66209373 -65.44498221 39.60946578 -65.45558107 38.52494001 C-65.39654854 32.27021135 -64.61092417 28.51445657 -60.92993164 23.40405273 C-55.39997941 18.67448833 -49.2752493 18.25520469 -42.32055664 18.30639648 C-41.59374695 18.30781143 -40.86693726 18.30922638 -40.11810303 18.3106842 C-37.8053367 18.31626481 -35.49266852 18.32881369 -33.17993164 18.34155273 C-31.60831846 18.34657024 -30.03670375 18.35113271 -28.46508789 18.35522461 C-24.61999821 18.36622789 -20.77498154 18.38347912 -16.92993164 18.40405273 C-16.94886475 17.29707031 -16.96779785 16.19008789 -16.98730469 15.04956055 C-16.9307764 11.45772932 -16.66821769 10.06939655 -14.74243164 7.15405273 C-14.33637695 6.50952148 -13.93032227 5.86499023 -13.51196289 5.20092773 C-9.59257595 0.74927837 -5.76792788 0.02553644 0 0 Z M183.25756836 278.65405273 C179.97211404 283.08559577 176.07006836 289.69388077 176.07006836 295.40405273 C196.35812782 295.42739397 216.64618456 295.44503795 236.93425465 295.45586491 C246.35396078 295.46102525 255.77365859 295.468063 265.19335938 295.47949219 C273.40179359 295.48944698 281.61022178 295.49590807 289.81866187 295.49814123 C294.16655358 295.49944698 298.51442803 295.5025243 302.86231422 295.50978279 C306.95225598 295.51655553 311.0421733 295.51866712 315.13212013 295.51716042 C316.63537733 295.51743618 318.13863531 295.51943388 319.64188766 295.52325821 C321.69023299 295.52821492 323.73859133 295.52644572 325.78694153 295.52430725 C327.50838993 295.52568994 327.50838993 295.52568994 329.26461506 295.52710056 C332.15260085 295.52896109 332.15260085 295.52896109 335.07006836 294.40405273 C336.50516057 291.53386832 336.18165341 289.06861551 336.16772461 285.86499023 C336.16450195 284.56303711 336.1612793 283.26108398 336.15795898 281.91967773 C336.14960302 280.53946875 336.14113806 279.15926041 336.13256836 277.77905273 C336.12755337 276.39103348 336.12299046 275.00301251 336.11889648 273.61499023 C336.10707812 270.21130141 336.0906027 266.80769835 336.07006836 263.40405273 C319.44057297 263.31039674 302.81116381 263.2399698 286.18146801 263.19680405 C278.45910485 263.17622408 270.73690606 263.14819151 263.01464844 263.10229492 C256.27986211 263.06228654 249.54519489 263.03658677 242.81029302 263.02769876 C239.24783625 263.02250752 235.68572008 263.01040323 232.12337303 262.98113251 C228.13564656 262.94863573 224.14850317 262.94810223 220.16064453 262.94995117 C218.9939473 262.93557007 217.82725006 262.92118896 216.62519836 262.90637207 C202.6856425 262.97601819 192.23485303 267.99948345 183.25756836 278.65405273 Z " fill="#000000" transform="translate(88.929931640625,167.595947265625)"/>
<path d="M0 0 C22.98261093 17.91247087 39.22770972 43.68267 43 72.875 C45.497187 110.22531013 34.16129285 135.12592861 14.078125 165.65234375 C9.91602701 171.98479323 5.82668721 178.3623307 1.75 184.75 C-3.29471723 192.65073403 -8.35289375 200.54182956 -13.46386719 208.39990234 C-14.25185791 209.61320355 -15.03611313 210.82894103 -15.81616211 212.04736328 C-16.65597222 213.34388184 -17.51571489 214.62758658 -18.38891602 215.90185547 C-21.12329754 219.99930606 -22.5693767 222.81374554 -22.5625 227.875 C-22.8210709 233.27096651 -23.61309303 237.56017331 -27 241.875 C-28.53914063 242.95394531 -28.53914063 242.95394531 -30.109375 244.0546875 C-32.01694263 245.59441906 -32.87856664 246.40678383 -33.49926758 248.80004883 C-33.63608374 251.06820831 -33.62514578 253.29123717 -33.5625 255.5625 C-33.68999153 264.01773839 -34.85567076 270.1659933 -40.60546875 276.69921875 C-47.4887731 283.20449266 -55.24526454 284.41772296 -64.375 284.3125 C-65.3045752 284.30347656 -66.23415039 284.29445313 -67.19189453 284.28515625 C-74.92141041 284.08943789 -81.08021035 283.34337434 -87.03515625 278.07421875 C-93.56604889 271.1678333 -95.30172483 265.03580412 -95.25 255.8125 C-95.25406556 249.89983705 -95.25406556 249.89983705 -97.5078125 244.6171875 C-99.34010019 243.16746119 -99.34010019 243.16746119 -101.28125 241.99609375 C-104.25410285 240.05698292 -105.28947903 237.20753198 -106 233.875 C-105.98043115 232.1249854 -105.95943576 230.37498653 -105.9375 228.625 C-106.53879614 219.61669304 -112.20088957 212.89277527 -117.12890625 205.65576172 C-120.54055737 200.58547123 -123.78518971 195.40767681 -127.0625 190.25 C-131.62865583 183.11390144 -136.20972883 175.9875334 -140.8125 168.875 C-141.24481934 168.20525146 -141.67713867 167.53550293 -142.12255859 166.84545898 C-144.33643026 163.42086318 -146.57107951 160.01221366 -148.8359375 156.62109375 C-171.45085081 122.58883034 -171.45085081 122.58883034 -170 106.875 C-167.9375 104 -167.9375 104 -165 101.875 C-161.4375 101.3125 -161.4375 101.3125 -158 101.875 C-153.96223147 104.94522777 -152.93267737 108.53318036 -151.6875 113.25 C-148.09817441 125.5901491 -142.08005541 136.09865185 -134.8671875 146.6328125 C-131.48072649 151.5965948 -128.27571964 156.67303458 -125.0625 161.75 C-120.94381039 168.24712668 -116.81429874 174.7356465 -112.625 181.1875 C-108.22016933 187.97600264 -103.84150622 194.78112655 -99.47576904 201.59481812 C-98.39027871 203.28865852 -97.303789 204.98185835 -96.21728516 206.67504883 C-95.55519043 207.70911865 -94.8930957 208.74318848 -94.2109375 209.80859375 C-93.61587402 210.73728271 -93.02081055 211.66597168 -92.40771484 212.62280273 C-90.44870997 215.75700668 -89.80333367 217.84166331 -89.4375 221.5 C-89.35371094 222.31726563 -89.26992187 223.13453125 -89.18359375 223.9765625 C-89.12300781 224.60304687 -89.06242187 225.22953125 -89 225.875 C-89.0501123 225.03641449 -89.10022461 224.19782898 -89.15185547 223.33383179 C-89.62454351 215.41851781 -90.09552509 207.50310452 -90.56460571 199.58757591 C-90.80580531 195.51845115 -91.04765705 191.44936736 -91.29101562 187.38037109 C-91.52598608 183.45121838 -91.75922198 179.52196615 -91.99127197 175.59263992 C-92.07996263 174.0959572 -92.1692709 172.59931094 -92.25921631 171.10270309 C-92.38539962 169.00134282 -92.50935664 166.89986188 -92.6328125 164.79833984 C-92.70387207 163.60365082 -92.77493164 162.40896179 -92.84814453 161.17807007 C-92.99098234 158.0711468 -93.02779719 154.98462553 -93 151.875 C-93.9178125 151.92140625 -94.835625 151.9678125 -95.78125 152.015625 C-104.30706326 152.26638421 -110.20992885 152.10604683 -116.70703125 146.3671875 C-121.43142499 141.42439113 -123.80732408 135.96790359 -124.12890625 129.13671875 C-123.7691941 121.25575265 -121.23809952 116.02788638 -115.625 110.5625 C-109.08383343 106.35746435 -103.7601236 104.84110911 -96 105.875 C-88.82004175 107.73733827 -84.08029822 111.75455267 -80 117.875 C-77.25946447 124.19014709 -78 128.44788375 -78 135.875 C-69.42 135.875 -60.84 135.875 -52 135.875 C-52 132.245 -52 128.615 -52 124.875 C-50.1704827 117.96349019 -47.0690103 112.51751819 -40.9609375 108.55078125 C-35.42688741 105.76420126 -30.1257355 104.79784467 -24 105.875 C-16.62134753 108.40267249 -11.83230052 111.97254529 -7.92578125 118.734375 C-5.19301522 125.05317579 -5.35582182 132.39973979 -7.859375 138.73828125 C-10.71840286 144.09406288 -14.89632897 149.35937879 -20.76977539 151.49609375 C-23.94327797 152.03525916 -27.03015802 151.96725996 -30.24609375 151.9375 C-31.50993896 151.92847656 -32.77378418 151.91945312 -34.07592773 151.91015625 C-35.04087158 151.89855469 -36.00581543 151.88695312 -37 151.875 C-37.07516846 153.42550049 -37.07516846 153.42550049 -37.15185547 155.00732422 C-38.02388421 172.94150507 -38.90514492 190.87548159 -39.93634033 208.80133057 C-40.01992949 210.25809508 -40.10242221 211.71492295 -40.18377686 213.17181396 C-40.29753636 215.20067173 -40.41623968 217.22925047 -40.53515625 219.2578125 C-40.600979 220.39621582 -40.66680176 221.53461914 -40.73461914 222.70751953 C-40.99429343 225.8068886 -41.4430631 228.8163222 -42 231.875 C-41.34 231.545 -40.68 231.215 -40 230.875 C-39.97858714 228.89583952 -40.01037221 226.91608975 -40.0625 224.9375 C-39.47925238 215.45255515 -34.93036882 209.10446771 -29.70361328 201.39550781 C-27.93618275 198.78058193 -26.21188944 196.1412513 -24.49609375 193.4921875 C-21.99987069 189.63940879 -19.49154912 185.79502687 -16.97265625 181.95703125 C-12.16428497 174.61505029 -7.44003648 167.21984289 -2.72241211 159.81933594 C0.23961608 155.17562363 3.20872261 150.53885382 6.2421875 145.94140625 C21.95399187 122.11861271 30.68504283 96.65947193 24.87060547 67.84106445 C19.17216862 43.79815232 4.65080243 23.1602979 -16.125 9.75 C-37.73329763 -3.0689085 -62.74024599 -7.33377049 -87.2109375 -1.12109375 C-112.11990733 5.86010638 -132.17283668 21.45915755 -145 43.875 C-149.86769439 53.17166953 -152.39775535 62.67610264 -154.56347656 72.85449219 C-156.6393142 82.46278766 -156.6393142 82.46278766 -158.75 84.875 C-161.81792333 86.23852148 -163.67335882 86.41812509 -167 85.875 C-169.875 83.875 -169.875 83.875 -172 80.875 C-172.37002795 75.10873111 -171.65914452 69.92338508 -170.375 64.3125 C-170.1982373 63.53382568 -170.02147461 62.75515137 -169.83935547 61.95288086 C-163.25382276 34.42535412 -145.9269246 9.94577541 -121.79296875 -4.94140625 C-83.68939768 -27.35931845 -36.08249626 -25.88836131 0 0 Z M-105.1875 123.0625 C-107.49548235 125.37048235 -107.92248409 126.61933177 -108 129.875 C-106.8584081 132.1581838 -105.80987317 134.06512683 -104 135.875 C-102.31391034 135.94705511 -100.62499341 135.95886068 -98.9375 135.9375 C-98.01839844 135.92847656 -97.09929687 135.91945312 -96.15234375 135.91015625 C-95.44207031 135.89855469 -94.73179687 135.88695312 -94 135.875 C-93.51781896 130.95675339 -93.23768402 127.91259675 -96.25 123.8125 C-99.56853448 121.47444161 -101.53800655 121.08134641 -105.1875 123.0625 Z M-33.875 123.75 C-36.69897394 127.90290286 -36.47751731 131.00432347 -36 135.875 C-34.39667209 135.95621924 -32.79215974 136.01429134 -31.1875 136.0625 C-30.29417969 136.09730469 -29.40085937 136.13210937 -28.48046875 136.16796875 C-25.96004109 136.08539112 -25.96004109 136.08539112 -24.23046875 134.51171875 C-22.53009183 132.24994755 -22.1346714 130.70309942 -22 127.875 C-22.92023288 125.03571467 -22.92023288 125.03571467 -25 122.875 C-28.96437603 121.32372242 -30.28750462 121.4103291 -33.875 123.75 Z M-77 151.875 C-76.4984201 161.10734667 -75.99467863 170.33956859 -75.48720646 179.57159328 C-75.25161301 183.85909952 -75.01694057 188.1466519 -74.78442383 192.43432617 C-74.55969892 196.57767442 -74.33248827 200.72087976 -74.10360527 204.86400032 C-74.01702074 206.43905937 -73.93130877 208.01416664 -73.84651375 209.58932304 C-73.42669654 217.37779466 -72.98263198 225.13247173 -72 232.875 C-67.38 232.875 -62.76 232.875 -58 232.875 C-56.50227133 214.51196205 -55.3407443 196.14816416 -54.375 177.75 C-54.23986061 175.21873518 -54.10444508 172.68748509 -53.96875 170.15625 C-53.64216675 164.06268446 -53.32118036 157.96886208 -53 151.875 C-60.92 151.875 -68.84 151.875 -77 151.875 Z M-79 247.875 C-80.45762178 261.12016015 -80.45762178 261.12016015 -75 266.875 C-71.40998391 268.07167203 -68.4095161 268.08038881 -64.625 268.125 C-63.31789063 268.15078125 -62.01078125 268.1765625 -60.6640625 268.203125 C-56.82004252 267.8588844 -55.01505381 267.22126005 -52 264.875 C-48.70569954 260.53447453 -48.70569954 260.53447453 -50 247.875 C-59.57 247.875 -69.14 247.875 -79 247.875 Z " fill="#000000" transform="translate(321,20.125)"/>
<path d="M0 0 C0.87037399 -0.00861557 1.74074799 -0.01723114 2.63749695 -0.02610779 C5.51392375 -0.04880592 8.38937927 -0.04202162 11.26586914 -0.03295898 C13.26599925 -0.03819311 15.26612688 -0.04446881 17.26625061 -0.05174255 C21.45854302 -0.06215405 25.65049616 -0.05757483 29.84277344 -0.04296875 C35.21440834 -0.02578554 40.58497315 -0.04926675 45.95648861 -0.08445835 C50.08723536 -0.10642329 54.21772575 -0.10499295 58.34851265 -0.09669304 C60.32885473 -0.09587292 62.30921552 -0.10274795 64.2895031 -0.11746407 C67.05955549 -0.13489195 69.82768125 -0.12038233 72.59765625 -0.09765625 C73.41496216 -0.10934845 74.23226807 -0.12104065 75.07434082 -0.13308716 C79.31664416 -0.06230088 80.91182344 0.18035761 84.37232971 2.88539124 C86.36352539 5.53344727 86.36352539 5.53344727 86.98852539 8.53344727 C86.13082252 12.65042102 84.66185019 13.94940969 81.36352539 16.53344727 C78.28949368 17.02277114 75.77394307 17.20904437 72.70532227 17.16455078 C71.84455582 17.17170609 70.98378937 17.17886139 70.09693909 17.18623352 C67.25817417 17.20311052 64.42099074 17.18372416 61.58227539 17.16235352 C59.60599639 17.16318231 57.62971746 17.16564207 55.65344238 17.16966248 C51.51411153 17.17251979 47.37532197 17.15782557 43.23608398 17.13037109 C37.93294833 17.09628859 32.63078055 17.10230724 27.32759857 17.12103367 C23.24745635 17.1316074 19.16753893 17.1226624 15.0874176 17.10764885 C13.13221403 17.10246933 11.17698695 17.10294604 9.2217865 17.1091938 C6.48792116 17.11465048 3.75543649 17.09425672 1.02172852 17.06689453 C-0.18784767 17.07668335 -0.18784767 17.07668335 -1.42185974 17.08666992 C-5.20492482 17.02235866 -7.41441989 16.67461311 -10.63830566 14.62510681 C-12.63647461 12.53344727 -12.63647461 12.53344727 -13.26538086 10.53344727 C-13.2434668 9.87344727 -13.22155273 9.21344727 -13.19897461 8.53344727 C-13.20026367 7.87344727 -13.20155273 7.21344727 -13.20288086 6.53344727 C-11.32451463 -0.09912868 -5.91386851 -0.04710334 0 0 Z " fill="#000000" transform="translate(312.636474609375,363.466552734375)"/>
<path d="M0 0 C0.87212631 -0.0071553 1.74425262 -0.01431061 2.64280701 -0.02168274 C5.51883698 -0.03855948 8.39330609 -0.01917502 11.26928711 0.00219727 C13.27038197 0.00136855 15.27147676 -0.00109094 17.27256775 -0.00511169 C21.46317065 -0.0079689 25.65323883 0.00672546 29.84375 0.03417969 C35.21648217 0.06828419 40.58825958 0.06223611 45.96103764 0.04351711 C50.09175075 0.03295211 54.22224145 0.04188006 58.35293388 0.05690193 C60.33408383 0.06208639 62.31525698 0.06159876 64.29640388 0.05535698 C67.06399684 0.04990998 69.83021943 0.07026223 72.59765625 0.09765625 C73.41698639 0.09113037 74.23631653 0.08460449 75.08047485 0.07788086 C78.71441078 0.13908139 80.80477907 0.30393686 83.73851013 2.53944397 C85.3490887 4.79187467 85.80198443 5.89007356 85.79663086 8.63110352 C85.81854492 9.29110352 85.84045898 9.95110352 85.86303711 10.63110352 C84.84988583 13.85305044 83.05288112 14.83915219 80.23413086 16.63110352 C77.2244382 17.02360686 74.58249964 17.18888227 71.57592773 17.16455078 C70.71516129 17.17316635 69.85439484 17.18178192 68.96754456 17.19065857 C66.12901539 17.21331738 63.29147347 17.20658037 60.45288086 17.19750977 C58.47660021 17.20274512 56.50032206 17.20902127 54.52404785 17.21629333 C50.38480866 17.22669717 46.24591326 17.22213583 42.10668945 17.20751953 C36.80345978 17.19032537 31.5013129 17.21383501 26.19820404 17.24900913 C22.11807075 17.27097279 18.03819701 17.26954425 13.95802307 17.26124382 C12.00280062 17.26042386 10.04755919 17.2672958 8.09239197 17.28201485 C5.35836256 17.29944325 2.62628498 17.28493358 -0.10766602 17.26220703 C-0.91405014 17.27389923 -1.72043427 17.28559143 -2.55125427 17.29763794 C-6.61426389 17.22895034 -8.53050895 16.81549396 -11.76794434 14.27915955 C-13.76586914 11.63110352 -13.76586914 11.63110352 -14.39086914 8.63110352 C-12.72442212 0.63215781 -6.96258044 -0.09960515 0 0 Z " fill="#000000" transform="translate(127.765869140625,363.368896484375)"/>
<path d="M0 0 C0.88173386 -0.00861557 1.76346771 -0.01723114 2.67192078 -0.02610779 C5.58561582 -0.04880512 8.49835209 -0.04202242 11.41210938 -0.03295898 C13.43705533 -0.03819266 15.46199883 -0.0444682 17.48693848 -0.05174255 C21.73050408 -0.06215355 25.9737345 -0.05757483 30.21728516 -0.04296875 C35.65851531 -0.02577446 41.09869016 -0.04928076 46.53980255 -0.08445835 C50.72112033 -0.10640535 54.90218451 -0.10499749 59.08354187 -0.09669304 C61.0898301 -0.09587215 63.09613669 -0.10276182 65.10237122 -0.11746407 C67.90614963 -0.13486141 70.70801766 -0.12040839 73.51171875 -0.09765625 C74.34197067 -0.10934845 75.1722226 -0.12104065 76.02763367 -0.13308716 C79.96168031 -0.06804812 81.84491568 0.16077692 84.80627441 2.84632874 C86.78478203 6.51391955 86.35538613 8.57515096 85.25585938 12.53344727 C83.67699972 14.59282943 82.56443515 15.37915938 80.25585938 16.53344727 C77.50595786 16.64752333 74.78080214 16.70129301 72.0300293 16.71044922 C70.7541671 16.72030602 70.7541671 16.72030602 69.45252991 16.73036194 C66.63046181 16.75011422 63.80844696 16.76176165 60.98632812 16.77172852 C60.02353754 16.77580404 59.06074696 16.77987957 58.0687809 16.7840786 C52.97318358 16.80494731 47.87761325 16.81924571 42.78198242 16.82861328 C37.51587033 16.83968102 32.25018042 16.87408288 26.98421764 16.91378498 C22.93759876 16.93991649 18.89108099 16.94830202 14.84438515 16.95189476 C12.9031012 16.95676948 10.96182203 16.96840858 9.02062035 16.98693275 C6.30336324 17.01125117 3.5872054 17.01037266 0.86987305 17.00341797 C0.06812653 17.01622803 -0.73362 17.02903809 -1.55966187 17.04223633 C-5.34050439 17.00696971 -7.51970721 16.6759598 -10.74320984 14.6290741 C-12.74414062 12.53344727 -12.74414062 12.53344727 -13.37304688 10.53344727 C-13.35113281 9.87344727 -13.32921875 9.21344727 -13.30664062 8.53344727 C-13.30792969 7.87344727 -13.30921875 7.21344727 -13.31054688 6.53344727 C-11.41961691 -0.14349166 -5.94381718 -0.04671911 0 0 Z " fill="#000000" transform="translate(312.744140625,290.466552734375)"/>
<path d="M0 0 C0.88158783 -0.00686325 1.76317566 -0.0137265 2.67147827 -0.02079773 C5.59047476 -0.03912379 8.50893675 -0.0352199 11.42797852 -0.02954102 C13.45435258 -0.03410013 15.48072509 -0.03940489 17.50709534 -0.04542542 C21.75658444 -0.05436801 26.00588572 -0.05192043 30.25537109 -0.04199219 C35.7043304 -0.03050293 41.15264163 -0.05070768 46.60151577 -0.07990932 C50.78709541 -0.09824545 54.97251902 -0.09798399 59.15812874 -0.0922718 C61.16720552 -0.09211826 63.17629266 -0.09818962 65.18533134 -0.11056328 C67.9937607 -0.12542204 70.80098369 -0.11483389 73.609375 -0.09765625 C74.44119797 -0.10732422 75.27302094 -0.11699219 76.13005066 -0.12695312 C79.79270428 -0.07998308 81.91895674 0.06223654 84.88148499 2.31040955 C86.48260197 4.56336214 86.93722948 5.6675567 86.93188477 8.40405273 C86.95379883 9.06405273 86.97571289 9.72405273 86.99829102 10.40405273 C85.98562128 13.62446829 84.18602411 14.6134045 81.36938477 16.40405273 C78.38142519 16.78142405 75.76938947 16.93186315 72.78710938 16.88989258 C71.9344902 16.89368927 71.08187103 16.89748596 70.20341492 16.90139771 C67.39247545 16.90879142 64.5825757 16.88743918 61.77172852 16.86499023 C59.8154767 16.8626052 57.85922256 16.86170061 55.90296936 16.86221313 C51.80658595 16.85908725 47.71055306 16.84253691 43.61425781 16.81567383 C38.36280111 16.78167196 33.11172903 16.77404603 27.86017513 16.77556419 C23.82215197 16.77502046 19.78421292 16.76405313 15.74621773 16.74956131 C13.80972492 16.74319648 11.87322259 16.73925515 9.93671989 16.7377739 C7.23173648 16.73343884 4.52716133 16.71593405 1.82226562 16.69458008 C1.02163696 16.69548645 0.2210083 16.69639282 -0.60388184 16.69732666 C-7.46685353 16.61808005 -7.46685353 16.61808005 -10.63061523 14.40405273 C-12.72740926 11.7081747 -12.62572344 10.31110874 -12.44311523 6.84155273 C-10.74182253 -0.35622411 -6.62791966 -0.03578181 0 0 Z " fill="#000000" transform="translate(126.630615234375,290.595947265625)"/>
<path d="M0 0 C1.26386032 -0.00503792 1.26386032 -0.00503792 2.55325317 -0.01017761 C5.34223906 -0.01968698 8.13116492 -0.02163066 10.92016602 -0.02270508 C12.85685755 -0.02591746 14.79354885 -0.02928152 16.73023987 -0.03279114 C20.79135704 -0.03878222 24.85245294 -0.04063104 28.91357422 -0.04003906 C34.12020865 -0.03993739 39.32670685 -0.05359454 44.53330898 -0.07081127 C48.53356047 -0.08192305 52.53377892 -0.08395853 56.53404427 -0.08342934 C58.4538018 -0.0846105 60.37356016 -0.08903992 62.29330254 -0.0967617 C64.97688249 -0.10654577 67.66016539 -0.10368991 70.34375 -0.09765625 C71.13817001 -0.10327576 71.93259003 -0.10889526 72.75108337 -0.11468506 C76.5414095 -0.09300121 79.56643403 -0.07393559 82.73657227 2.14526367 C84.83336629 4.84114171 84.73168048 6.23820767 84.54907227 9.70776367 C83.72914672 13.17667942 83.43280609 14.05131125 80.73657227 16.14526367 C77.79005338 16.44677847 75.05408702 16.56523232 72.10595703 16.54931641 C70.78357529 16.55961128 70.78357529 16.55961128 69.43447876 16.57011414 C66.51548227 16.5884402 63.59702028 16.58453631 60.67797852 16.57885742 C58.65160445 16.58341654 56.62523194 16.5887213 54.59886169 16.59474182 C50.3493726 16.60368442 46.10007131 16.60123684 41.85058594 16.59130859 C36.40162664 16.57981933 30.9533154 16.60002408 25.50444126 16.62922573 C21.31886162 16.64756186 17.13343801 16.6473004 12.94782829 16.64158821 C10.93875151 16.64143467 8.92966437 16.64750603 6.92062569 16.65987968 C4.11219633 16.67473844 1.30497334 16.66415029 -1.50341797 16.64697266 C-2.33524094 16.65664063 -3.1670639 16.66630859 -4.02409363 16.67626953 C-7.68649714 16.62930269 -9.81476721 16.48475225 -12.77992249 14.24110413 C-15.28486758 10.70221185 -14.73653253 8.40320682 -14.26342773 4.14526367 C-10.92680515 -0.78022682 -5.3615937 -0.00305081 0 0 Z " fill="#000000" transform="translate(314.263427734375,326.854736328125)"/>
<path d="M0 0 C0.84082123 -0.0049649 1.68164246 -0.00992981 2.54794312 -0.01504517 C5.337553 -0.02968429 8.12710601 -0.03647203 10.91674805 -0.04199219 C12.85247296 -0.04774262 14.78819786 -0.05350037 16.72392273 -0.05926514 C20.78681708 -0.0697804 24.84969161 -0.07561948 28.91259766 -0.07910156 C34.11809972 -0.08458446 39.32333998 -0.10860593 44.52875996 -0.13707352 C48.52905542 -0.15570082 52.52928786 -0.16090557 56.52962303 -0.16243744 C58.44856382 -0.16546477 60.36750347 -0.17349602 62.28640175 -0.18662262 C64.97238671 -0.20368345 67.65773279 -0.2018027 70.34375 -0.1953125 C71.13614578 -0.20452728 71.92854156 -0.21374207 72.74494934 -0.22323608 C77.74522277 -0.18540084 81.26085191 0.55601793 84.8659668 4.16113281 C85.45344014 11.32830759 85.45344014 11.32830759 83.38586426 14.25938416 C79.80098791 16.96486479 76.43786231 16.72850464 72.12182617 16.69458008 C71.24009232 16.70319565 70.35835846 16.71181122 69.4499054 16.72068787 C66.53621035 16.7433852 63.62347408 16.73660249 60.7097168 16.72753906 C58.68477085 16.73277274 56.65982734 16.73904828 54.6348877 16.74632263 C50.39132209 16.75673362 46.14809167 16.7521549 41.90454102 16.73754883 C36.46331086 16.72035454 31.02313601 16.74386084 25.58202362 16.77903843 C21.40070584 16.80098542 17.21964166 16.79957757 13.0382843 16.79127312 C11.03199607 16.79045222 9.02568948 16.79734189 7.01945496 16.81204414 C4.21567654 16.82944148 1.41380851 16.81498847 -1.38989258 16.79223633 C-2.2201445 16.80392853 -3.05039642 16.81562073 -3.9058075 16.82766724 C-7.83985414 16.7626282 -9.72308951 16.53380316 -12.68444824 13.84825134 C-14.66295586 10.18066053 -14.23355995 8.11942912 -13.1340332 4.16113281 C-9.5816286 -0.47243842 -5.42959804 0.00760146 0 0 Z " fill="#000000" transform="translate(128.134033203125,326.8388671875)"/>
<path d="M0 0 C0.80516556 -0.00525696 1.61033112 -0.01051392 2.43989563 -0.01593018 C5.10400739 -0.02914465 7.76752268 -0.02038713 10.43164062 -0.01025391 C12.28104772 -0.01227423 14.13045404 -0.01518532 15.9798584 -0.01895142 C19.85692933 -0.02337673 23.73379299 -0.01693707 27.61083984 -0.00292969 C32.58451586 0.01416233 37.55770625 0.00432225 42.53136444 -0.01364708 C46.35060292 -0.02447934 50.16972597 -0.02104115 53.9889679 -0.0132637 C55.82302406 -0.01126015 57.65709065 -0.0137264 59.49113464 -0.02070236 C62.05296658 -0.02830771 64.61400828 -0.01672592 67.17578125 0 C67.93639359 -0.00607269 68.69700592 -0.01214539 69.48066711 -0.0184021 C74.60113092 0.0436413 74.60113092 0.0436413 77.03161621 1.76400757 C78.49791823 4.01866086 78.89608599 5.70291874 79.08789062 8.38818359 C78.15172812 11.48472111 77.3836574 13.09241682 75.08789062 15.38818359 C72.45397561 15.59185802 69.92475941 15.67138544 67.28930664 15.6628418 C66.48428711 15.66795273 65.67926758 15.67306366 64.84985352 15.67832947 C62.18042633 15.69226522 59.51125618 15.69126571 56.84179688 15.68896484 C54.99096073 15.69284966 53.14012547 15.69718388 51.28929138 15.70195007 C47.40629184 15.7094209 43.5233832 15.70911483 39.64038086 15.70385742 C34.65885249 15.69806235 29.67769587 15.71499048 24.69622898 15.7382021 C20.8727144 15.75291836 17.04928976 15.75381401 13.22575188 15.75069237 C11.38889772 15.75120667 9.55203866 15.75646467 7.71521187 15.76650429 C5.14851708 15.77881041 2.58255183 15.77211236 0.01586914 15.76049805 C-0.74631424 15.76814178 -1.50849762 15.77578552 -2.29377747 15.78366089 C-7.4238357 15.73222664 -7.4238357 15.73222664 -9.88270569 13.99967957 C-11.2436008 11.8692452 -11.312272 10.4044461 -11.28710938 7.88818359 C-11.29484375 7.11474609 -11.30257812 6.34130859 -11.31054688 5.54443359 C-10.18045459 -0.57135996 -5.20792742 -0.04157985 0 0 Z " fill="#000000" transform="translate(111.912109375,252.61181640625)"/>
<path d="M0 0 C0.76420761 0.00090637 1.52841522 0.00181274 2.31578064 0.00274658 C3.52330994 -0.00732925 3.52330994 -0.00732925 4.75523376 -0.01760864 C7.42464822 -0.03665514 10.09381217 -0.04051609 12.76329041 -0.04266357 C14.61412664 -0.04908664 16.46496184 -0.05581462 18.3157959 -0.06283569 C22.19879003 -0.07482493 26.08169508 -0.0785148 29.96470642 -0.07733154 C34.94632525 -0.0771282 39.92737455 -0.10443838 44.9088583 -0.13887596 C48.73237748 -0.16108627 52.5557583 -0.1651709 56.3793354 -0.16411209 C58.21620206 -0.16647661 60.05307204 -0.17534772 61.88987541 -0.19077682 C64.45673165 -0.21031975 67.0223429 -0.20464571 69.58921814 -0.19256592 C70.35140152 -0.20380493 71.1135849 -0.21504395 71.89886475 -0.22662354 C77.04274477 -0.16494348 77.04274477 -0.16494348 79.48779297 2.19644165 C81.25049505 5.78695785 80.89606012 8.31520756 80.51719666 12.29327393 C79.48826599 14.0151062 79.48826599 14.0151062 77.51719666 15.29327393 C74.80360012 15.58934274 72.31936184 15.70312816 69.60508728 15.68145752 C68.39733894 15.68934296 68.39733894 15.68934296 67.16519165 15.6973877 C64.50107989 15.71060217 61.8375646 15.70184465 59.17344666 15.69171143 C57.32403956 15.69373175 55.47463324 15.69664284 53.62522888 15.70040894 C49.74815795 15.70483425 45.87129429 15.69839459 41.99424744 15.68438721 C37.02057142 15.66729519 32.04738103 15.67713527 27.07372284 15.6951046 C23.25448436 15.70593686 19.43536131 15.70249867 15.61611938 15.69472122 C13.78206322 15.69271767 11.94799663 15.69518392 10.11395264 15.70215988 C7.5521207 15.70976523 4.991079 15.69818344 2.42930603 15.68145752 C1.28838753 15.69056656 1.28838753 15.69056656 0.12442017 15.69985962 C-4.99604364 15.63781622 -4.99604364 15.63781622 -7.42652893 13.91744995 C-8.89283095 11.66279666 -9.29099871 9.97853878 -9.48280334 7.29327393 C-7.73976236 1.52783068 -6.04235606 0.0739695 0 0 Z " fill="#000000" transform="translate(331.48280334472656,252.70672607421875)"/>
<path d="M0 0 C3.95299232 0.78211875 6.41564751 3.3401884 9.26464844 6.04833984 C9.84601563 6.57041016 10.42738281 7.09248047 11.02636719 7.63037109 C12.75914315 9.2003359 14.45032395 10.80684379 16.13964844 12.42333984 C16.71473145 12.94879395 17.28981445 13.47424805 17.88232422 14.015625 C20.86030248 16.81360102 22.55140847 18.44016806 22.76464844 22.54833984 C22.13964844 26.42333984 22.13964844 26.42333984 20.57714844 28.92333984 C17.21431739 30.99277434 15.0438182 30.78767382 11.13964844 30.42333984 C8.36621094 28.73583984 8.36621094 28.73583984 5.76464844 26.42333984 C4.83136719 25.60736328 3.89808594 24.79138672 2.93652344 23.95068359 C2.01355469 23.11666016 1.09058594 22.28263672 0.13964844 21.42333984 C-0.74207031 20.66150391 -1.62378906 19.89966797 -2.53222656 19.11474609 C-9.69658125 12.89727268 -9.69658125 12.89727268 -10.17285156 8.61083984 C-9.52976745 2.05138193 -6.48259231 -0.18408088 0 0 Z " fill="#000000" transform="translate(389.8603515625,88.57666015625)"/>
<path d="M0 0 C3.5625 0.875 3.5625 0.875 6.0625 3 C7.84051176 6.40785587 8.27210213 8.09045532 7.5625 11.875 C5.96601489 13.60901005 4.28131699 15.26216904 2.5625 16.875 C2.00457764 17.40416016 1.44665527 17.93332031 0.87182617 18.47851562 C-0.95160984 20.20370348 -2.78683363 21.91552448 -4.625 23.625 C-5.25341797 24.21410156 -5.88183594 24.80320312 -6.52929688 25.41015625 C-7.13193359 25.97089844 -7.73457031 26.53164062 -8.35546875 27.109375 C-9.17180786 27.87072754 -9.17180786 27.87072754 -10.00463867 28.64746094 C-12.37974866 30.68222888 -13.60044083 30.89008711 -16.8125 31.1875 C-20.4375 30.875 -20.4375 30.875 -22.875 29.375 C-24.61375588 26.59299059 -25.31639764 24.38265755 -25.1328125 21.078125 C-23.5835707 16.16929143 -19.22244115 13.12392347 -15.4375 9.875 C-14.06851563 8.60269531 -14.06851563 8.60269531 -12.671875 7.3046875 C-4.82651862 0.31399285 -4.82651862 0.31399285 0 0 Z " fill="#000000" transform="translate(125.4375,88.125)"/>
<path d="M0 0 C4.03258846 2.56313341 7.46238446 5.79640824 11 9 C12.21236328 10.05380859 12.21236328 10.05380859 13.44921875 11.12890625 C16.83470622 14.2348023 18.75580597 16.27962761 20.25 20.6875 C20 24 20 24 18.5625 26.9375 C15.79759192 29.16291382 13.92149714 29.96619536 10.33984375 29.74609375 C5.01645298 28.04865195 1.04834961 23.69631921 -3 20 C-4.5403857 18.68599686 -6.08189548 17.37330922 -7.625 16.0625 C-11.1049313 13.05839604 -11.91332929 11.89559735 -12.375 7.125 C-12.32042351 3.79583412 -12.13460445 3.16723583 -9.9375 0.4375 C-6.07970497 -1.45035714 -4.15071197 -0.95785661 0 0 Z " fill="#000000" transform="translate(113,28)"/>
<path d="M0 0 C1.9375 1.0625 1.9375 1.0625 3 3 C3.70533643 8.46635731 3.70533643 8.46635731 3 11 C0.88671875 13.3671875 0.88671875 13.3671875 -2 16 C-3.08788414 17.02535824 -4.17509731 18.05142871 -5.26171875 19.078125 C-6.40262968 20.1365131 -7.54456984 21.19379274 -8.6875 22.25 C-9.26822266 22.79140625 -9.84894531 23.3328125 -10.44726562 23.890625 C-14.79408724 27.91080684 -16.9422394 29.43947149 -23.01953125 29.33984375 C-25 29 -25 29 -27.5625 26.9375 C-29.53869207 22.89919446 -29.44942473 21.27580297 -28 17 C-25.61094157 14.00925278 -22.86769479 11.52535753 -20 9 C-19.29617188 8.35417969 -18.59234375 7.70835938 -17.8671875 7.04296875 C-7.82228373 -2.02799949 -7.82228373 -2.02799949 0 0 Z " fill="#000000" transform="translate(409,28)"/>
</svg>
