<?xml version="1.0" encoding="UTF-8"?>
<svg version="1.1" xmlns="http://www.w3.org/2000/svg" width="512" height="512">
<path d="M0 0 C7.07361824 4.46590467 12.31652362 10.24773974 14.4375 18.4375 C15.08446372 24.76109549 14.81237705 31.15696421 14.6875 37.5 C14.605 43.419375 14.5225 49.33875 14.4375 55.4375 C32.9175 55.4375 51.3975 55.4375 70.4375 55.4375 C70.2405983 43.71058395 70.2405983 43.71058395 69.98706055 31.98486328 C69.83475029 21.38254202 70.78975752 13.91945266 77.875 5.5625 C86.7828921 -1.82453247 94.33225228 -2.34948606 105.4375 -1.5625 C113.51197671 0.6223584 118.19858708 6.70078721 122.421875 13.5703125 C124.78143433 17.90827157 124.56645513 22.0305605 124.53515625 26.82421875 C124.53414917 27.54855103 124.53314209 28.2728833 124.53210449 29.01916504 C124.52687826 31.72112616 124.51291698 34.4230647 124.5 37.125 C124.479375 43.168125 124.45875 49.21125 124.4375 55.4375 C142.9175 55.4375 161.3975 55.4375 180.4375 55.4375 C180.2405983 43.71058395 180.2405983 43.71058395 179.98706055 31.98486328 C179.83475029 21.38254202 180.78975752 13.91945266 187.875 5.5625 C196.7828921 -1.82453247 204.33225228 -2.34948606 215.4375 -1.5625 C220.99420934 -0.05891983 224.66323212 3.13902825 228.4375 7.4375 C229.159375 8.241875 229.88125 9.04625 230.625 9.875 C234.50124425 15.35520739 234.71850078 20.65595704 234.6328125 27.1171875 C234.62856766 28.33633347 234.62856766 28.33633347 234.62423706 29.58010864 C234.61310619 32.15772675 234.58801515 34.73498819 234.5625 37.3125 C234.55246101 39.06770329 234.54333677 40.82291206 234.53515625 42.578125 C234.51319015 46.86471926 234.47870978 51.1510493 234.4375 55.4375 C235.59685059 55.42178955 236.75620117 55.4060791 237.95068359 55.38989258 C242.29305954 55.33518257 246.63540564 55.30100192 250.97802734 55.27270508 C252.84982443 55.25771135 254.72158694 55.2373095 256.59326172 55.21118164 C281.4719155 54.87283195 281.4719155 54.87283195 289.3125 62.0625 C290.01117188 62.67351562 290.70984375 63.28453125 291.4296875 63.9140625 C297.53963502 71.5931016 298.01624393 79.20757573 297.9521637 88.75520325 C297.95749619 90.09243826 297.96456591 91.42966728 297.97321075 92.76688498 C297.99177077 96.42166688 297.98555646 100.07604175 297.97505772 103.73084009 C297.96804713 107.67970605 297.98407728 111.62848996 297.99705505 115.57733154 C298.01866564 123.30386108 298.01857634 131.03024318 298.01042951 138.756793 C298.00412519 145.03468623 298.00527048 151.31253652 298.01170158 157.59042931 C298.01260324 158.48449669 298.01350489 159.37856407 298.01443387 160.2997244 C298.01628508 162.11603868 298.01814764 163.93235295 298.02002143 165.7486672 C298.03658816 182.76773813 298.02788867 199.78672607 298.01103585 216.805792 C297.99632397 232.38368553 298.01099019 247.96138644 298.03980602 263.53925518 C298.06917659 279.53603602 298.08018016 295.53272789 298.07062382 311.52953452 C298.06960125 313.33757284 298.06860665 315.14561117 298.0676403 316.95364952 C298.06716391 317.8432394 298.06668752 318.73282928 298.0661967 319.64937643 C298.06403034 325.92341322 298.07384784 332.19736592 298.08841133 338.47138405 C298.10589923 346.11165993 298.10586775 353.75168977 298.08305968 361.39195583 C298.07188781 365.29130279 298.06882118 369.19021567 298.08736038 373.0895443 C298.10717653 377.31162811 298.08844877 381.53264643 298.06568909 385.75471497 C298.07752482 386.99370082 298.08936054 388.23268668 298.10155493 389.50921756 C298.01083137 397.74421176 298.01083137 397.74421176 295.12480068 401.23408031 C291.45655733 402.87678308 289.27085442 402.50232067 285.4375 401.4375 C283.13199668 399.75777183 282.51016743 398.89744237 282.06079382 396.05316997 C282.05997936 395.1012084 282.0591649 394.14924684 282.05832577 393.16843796 C282.04599105 391.52004917 282.04599105 391.52004917 282.03340715 389.83835959 C282.03961897 388.62622424 282.04583078 387.41408889 282.05223083 386.16522217 C282.04699514 384.88127886 282.04175944 383.59733555 282.03636509 382.27448487 C282.02217145 378.70320978 282.02665881 375.13216137 282.03407824 371.5608747 C282.03880595 367.71206347 282.02626564 363.86330533 282.01571655 360.01451111 C281.99971853 353.34217678 281.99446785 346.66990321 281.99624443 339.99755096 C281.99862527 330.34277396 281.98265395 320.68809423 281.96179188 311.03334263 C281.92823992 295.35996338 281.9065958 279.68659282 281.89379883 264.01318359 C281.89302934 263.07467262 281.89225985 262.13616164 281.89146704 261.16921094 C281.88836486 257.36667362 281.88528204 253.56413629 281.882227 249.76159893 C281.87370216 239.30216407 281.86280026 228.84273223 281.85083008 218.38330078 C281.84976206 217.44714317 281.84869404 216.51098555 281.84759366 215.54645953 C281.82950125 199.93745586 281.80350736 184.32847286 281.77269894 168.71948934 C281.75414137 159.08958044 281.74322896 149.45971796 281.74217702 139.82979092 C281.74107351 133.22984081 281.73312373 126.62992249 281.71979337 120.02998582 C281.71237454 116.22157547 281.70828031 112.41323468 281.71291161 108.60481834 C281.71788478 104.47571893 281.7075492 100.34679798 281.69578552 96.2177124 C281.70175716 94.41289371 281.70175716 94.41289371 281.70784944 92.57161403 C281.67878575 86.82989818 281.54580044 81.81519146 279.4375 76.4375 C274.89680979 72.04328367 269.8259518 72.2438974 263.83203125 72.12109375 C262.99282639 72.10031265 262.15362152 72.07953156 261.28898621 72.05812073 C258.60940706 71.99275982 255.92973031 71.93380286 253.25 71.875 C251.43293263 71.83180198 249.61587512 71.78818727 247.79882812 71.74414062 C243.34515201 71.6370922 238.89137774 71.53578681 234.4375 71.4375 C234.48970703 73.24734375 234.48970703 73.24734375 234.54296875 75.09375 C234.57112984 76.70831928 234.59842749 78.32290379 234.625 79.9375 C234.66270508 81.12472656 234.66270508 81.12472656 234.70117188 82.3359375 C234.80721056 90.96041722 232.30500576 97.31462303 226.40625 103.67578125 C220.23579435 109.19735962 213.16833966 110.7750209 205.08984375 110.64453125 C196.82023184 109.99903872 190.97226874 106.5357633 185.4375 100.4375 C178.70285908 91.11410983 180.4375 83.69347767 180.4375 71.4375 C161.9575 71.4375 143.4775 71.4375 124.4375 71.4375 C124.4375 77.3775 124.4375 83.3175 124.4375 89.4375 C121.28769126 97.83698997 118.34918396 103.68941426 110.25 107.875 C103.08464316 111.12932704 95.3916473 111.51607627 87.8125 109.375 C80.06002462 106.45238539 74.90918701 100.79747646 71.4375 93.4375 C69.65706897 86.31577589 70.4375 78.77840518 70.4375 71.4375 C51.9575 71.4375 33.4775 71.4375 14.4375 71.4375 C14.4375 77.3775 14.4375 83.3175 14.4375 89.4375 C11.28769126 97.83698997 8.34918396 103.68941426 0.25 107.875 C-6.91535684 111.12932704 -14.6083527 111.51607627 -22.1875 109.375 C-29.61279812 106.54131733 -35.38002192 101.03882288 -38.64160156 93.78881836 C-39.86816771 89.32511913 -39.77739509 85.18092626 -39.6875 80.578125 C-39.67847656 79.69785645 -39.66945312 78.81758789 -39.66015625 77.91064453 C-39.63673337 75.75281128 -39.60086715 73.59511928 -39.5625 71.4375 C-44.86487781 71.50655529 -50.16648045 71.59460821 -55.46826172 71.69995117 C-57.27025729 71.73311773 -59.07235467 71.76117525 -60.87451172 71.78393555 C-63.47146823 71.81763432 -66.06749866 71.86995649 -68.6640625 71.92578125 C-69.4642984 71.93217117 -70.2645343 71.9385611 -71.08901978 71.94514465 C-75.94273751 72.07150371 -79.37048882 72.73591971 -83.5625 75.4375 C-87.17579669 80.85744504 -86.69558233 86.45034078 -86.703125 92.75390625 C-86.72144027 94.58790317 -86.74100937 96.42188793 -86.76171875 98.25585938 C-86.79076095 101.13522141 -86.81250233 104.01379211 -86.81298828 106.89331055 C-86.81631673 109.68088296 -86.85080904 112.46664735 -86.890625 115.25390625 C-86.8835553 116.11440079 -86.8764856 116.97489532 -86.86920166 117.86146545 C-86.95480539 122.05633708 -86.99133101 123.80158969 -89.87792969 127.01538086 C-93.54439266 128.95764594 -95.61981555 128.53269012 -99.5625 127.4375 C-101.71656934 125.81865079 -102.46738497 124.95688298 -102.95690918 122.28379822 C-102.96532837 121.45014236 -102.97374756 120.61648651 -102.98242188 119.75756836 C-102.99833374 118.80905502 -103.01424561 117.86054169 -103.03063965 116.88328552 C-103.03084106 115.85832474 -103.03104248 114.83336395 -103.03125 113.77734375 C-103.03886353 112.71769913 -103.04647705 111.6580545 -103.05432129 110.56629944 C-103.06513688 108.31937007 -103.0679695 106.07239036 -103.06347656 103.82543945 C-103.06251049 100.41204885 -103.10398694 97.0009529 -103.1484375 93.58789062 C-103.15364945 91.40104633 -103.15633261 89.21419426 -103.15625 87.02734375 C-103.17264526 86.01655258 -103.18904053 85.00576141 -103.20593262 83.96434021 C-103.11893514 74.89028683 -100.32287592 67.94782081 -93.875 61.5 C-84.60571932 53.13503939 -70.46562748 55.08907179 -58.9375 55.25 C-57.05600027 55.26507144 -55.1744889 55.2787555 -53.29296875 55.29101562 C-48.7158547 55.32383247 -44.13930769 55.37547933 -39.5625 55.4375 C-39.58868408 54.36902832 -39.61486816 53.30055664 -39.6418457 52.19970703 C-39.73311473 48.19292575 -39.79002418 44.18623412 -39.8371582 40.17871094 C-39.86212938 38.4523162 -39.89611907 36.72602529 -39.93969727 35 C-40.22571884 23.37069908 -39.96953052 14.81502317 -32.125 5.5625 C-23.46616394 -1.61799819 -10.86164824 -5.02297567 0 0 Z M-22.5625 19.4375 C-23.95516654 22.22283307 -23.71289342 24.52738827 -23.73950195 27.64379883 C-23.75233719 28.94887894 -23.76517242 30.25395905 -23.77839661 31.59858704 C-23.78656413 33.03056459 -23.79400784 34.46254643 -23.80078125 35.89453125 C-23.80485678 36.61460546 -23.8089323 37.33467968 -23.81313133 38.07657433 C-23.83399309 41.8883676 -23.84829391 45.70012487 -23.85766602 49.51196289 C-23.86872661 53.44638839 -23.90312133 57.38024771 -23.94283772 61.31447315 C-23.96900271 64.34198548 -23.97735773 67.36936293 -23.98094749 70.39697838 C-23.98581438 71.8470409 -23.99743146 73.29709735 -24.01598549 74.74704933 C-24.04036797 76.77889989 -24.036993 78.81102576 -24.0324707 80.84301758 C-24.03833694 81.99836502 -24.04420319 83.15371246 -24.05024719 84.34407043 C-23.45873247 88.09562279 -22.16808871 89.72949834 -19.5625 92.4375 C-16.29315722 94.72603994 -13.4926848 94.90912218 -9.5625 94.4375 C-5.5942268 92.30073751 -3.1528203 90.66959013 -1.5625 86.4375 C-1.23948226 83.44897213 -1.23948226 83.44897213 -1.25610352 80.11181641 C-1.24011612 78.8301358 -1.22412872 77.5484552 -1.20765686 76.22793579 C-1.20127995 74.83164875 -1.19588727 73.43535691 -1.19140625 72.0390625 C-1.18243507 70.60183622 -1.17331314 69.16461088 -1.16404724 67.72738647 C-1.14757219 64.71634658 -1.13985986 61.70541768 -1.13696289 58.69433594 C-1.13158015 54.84506933 -1.0939003 50.9968527 -1.04821873 47.14788246 C-1.01840521 44.17949661 -1.01123843 41.21136234 -1.01023674 38.24283981 C-1.00604294 36.82429571 -0.9936422 35.40575027 -0.97271919 33.98735428 C-0.52925614 25.25495207 -0.52925614 25.25495207 -3.97241211 17.58349609 C-7.54953975 14.61969631 -9.75896566 14.04389501 -14.45703125 14.078125 C-18.17843453 14.71331814 -19.96562849 16.77729016 -22.5625 19.4375 Z M87.4375 19.4375 C86.05779925 22.1969015 86.28734979 24.44792189 86.26049805 27.53613281 C86.24766281 28.81796448 86.23482758 30.09979614 86.22160339 31.42047119 C86.21343495 32.8271852 86.20599142 34.23390358 86.19921875 35.640625 C86.19514322 36.3484185 86.1910677 37.05621201 86.18686867 37.7854538 C86.16600437 41.53356128 86.15170568 45.28163215 86.14233398 49.02978516 C86.13128379 52.89461517 86.0969019 56.75886716 86.05716228 60.62349319 C86.03096648 63.60043378 86.02263945 66.57723745 86.01905251 69.55428314 C86.01419215 70.97840009 86.00259374 72.40251115 85.98401451 73.8265152 C85.95957058 75.8246312 85.96301302 77.82302866 85.9675293 79.82128906 C85.96166306 80.956651 85.95579681 82.09201294 85.94975281 83.26177979 C86.55007306 87.17046282 88.02203892 89.3456844 90.4375 92.4375 C93.64535018 94.78992347 96.53399252 94.9059209 100.4375 94.4375 C104.4057732 92.30073751 106.8471797 90.66959013 108.4375 86.4375 C108.76051774 83.44897213 108.76051774 83.44897213 108.74389648 80.11181641 C108.75988388 78.8301358 108.77587128 77.5484552 108.79234314 76.22793579 C108.79872005 74.83164875 108.80411273 73.43535691 108.80859375 72.0390625 C108.81756493 70.60183622 108.82668686 69.16461088 108.83595276 67.72738647 C108.85242781 64.71634658 108.86014014 61.70541768 108.86303711 58.69433594 C108.86841985 54.84506933 108.9060997 50.9968527 108.95178127 47.14788246 C108.98159479 44.17949661 108.98876157 41.21136234 108.98976326 38.24283981 C108.99395706 36.82429571 109.0063578 35.40575027 109.02728081 33.98735428 C109.47074386 25.25495207 109.47074386 25.25495207 106.02758789 17.58349609 C102.45046025 14.61969631 100.24103434 14.04389501 95.54296875 14.078125 C91.82156547 14.71331814 90.03437151 16.77729016 87.4375 19.4375 Z M197.4375 19.4375 C196.05779925 22.1969015 196.28734979 24.44792189 196.26049805 27.53613281 C196.24766281 28.81796448 196.23482758 30.09979614 196.22160339 31.42047119 C196.21343495 32.8271852 196.20599142 34.23390358 196.19921875 35.640625 C196.19514322 36.3484185 196.1910677 37.05621201 196.18686867 37.7854538 C196.16600437 41.53356128 196.15170568 45.28163215 196.14233398 49.02978516 C196.13128379 52.89461517 196.0969019 56.75886716 196.05716228 60.62349319 C196.03096648 63.60043378 196.02263945 66.57723745 196.01905251 69.55428314 C196.01419215 70.97840009 196.00259374 72.40251115 195.98401451 73.8265152 C195.95957058 75.8246312 195.96301302 77.82302866 195.9675293 79.82128906 C195.96166306 80.956651 195.95579681 82.09201294 195.94975281 83.26177979 C196.55007306 87.17046282 198.02203892 89.3456844 200.4375 92.4375 C203.64535018 94.78992347 206.53399252 94.9059209 210.4375 94.4375 C214.0953218 92.39756092 216.10696174 90.93330738 218.4375 87.4375 C218.76324115 84.50771271 218.76324115 84.50771271 218.74389648 81.13354492 C218.75988388 79.83176804 218.77587128 78.52999115 218.79234314 77.18876648 C218.79872048 75.76517121 218.80411302 74.34157125 218.80859375 72.91796875 C218.81756199 71.45689298 218.82668388 69.99581815 218.83595276 68.53474426 C218.85244444 65.47064992 218.86014292 62.40666485 218.86303711 59.3425293 C218.86841532 55.42485972 218.90606938 51.50822404 218.95178127 47.59084606 C218.98159592 44.5718465 218.98876163 41.55309431 218.98976326 38.53396034 C218.99395841 37.09029731 219.0063646 35.64663306 219.02728081 34.20311546 C219.48896156 25.35242155 219.48896156 25.35242155 216.02758789 17.56762695 C212.44761095 14.62340046 210.23158933 14.04396383 205.54296875 14.078125 C201.82156547 14.71331814 200.03437151 16.77729016 197.4375 19.4375 Z " fill="#000000" transform="translate(158.5625,1.5625)"/>
<path d="M0 0 C4.10167846 0.58595407 4.99720287 1.29341992 7.5 4.5 C8.00090468 7.11753303 8.00090468 7.11753303 8.00222206 10.15760517 C8.01243625 11.3177398 8.02265044 12.47787444 8.03317416 13.67316467 C8.01948717 15.58621761 8.01948717 15.58621761 8.00552368 17.53791809 C8.00996578 18.9058218 8.01616698 20.27372075 8.02397859 21.64160937 C8.04039785 25.40451365 8.03192062 29.16701727 8.01948738 32.92992175 C8.01044383 36.98663074 8.02444561 41.0432662 8.03575134 45.09996033 C8.05226788 52.13134346 8.05438282 59.16261285 8.04698563 66.19400978 C8.03647813 76.36787706 8.0498489 86.54160496 8.06945018 96.71545371 C8.10080533 113.23128274 8.11579699 129.74708237 8.11914062 146.26293945 C8.11934461 147.25172538 8.1195486 148.2405113 8.11975877 149.25926044 C8.11996214 150.24927505 8.12016551 151.23928965 8.12037504 152.2593047 C8.12329365 166.28819001 8.13009346 180.31706625 8.14160156 194.34594727 C8.14240686 195.33262108 8.14321215 196.3192949 8.14404185 197.33586792 C8.15779569 213.78562924 8.17958527 230.23537434 8.2054714 246.68512076 C8.22092034 256.83332269 8.22812486 266.9814716 8.22467647 277.12968507 C8.22263659 284.08377238 8.22729576 291.03783335 8.23721983 297.99191383 C8.24265392 302.00488473 8.2447245 306.01778739 8.23804665 310.0307579 C8.23196239 313.70533267 8.23502059 317.37978283 8.24528353 321.05434724 C8.24833494 323.01143424 8.24150618 324.96852896 8.23431265 326.92560512 C7.93368035 336.8829984 7.93368035 336.8829984 12.3125 345.375 C16.54035382 347.54932482 20.8153173 347.62547815 25.49929619 347.62863445 C26.71018941 347.6318589 27.92108263 347.63508335 29.16866958 347.6384055 C30.50900208 347.63693443 31.84933447 347.63536671 33.18966675 347.63371277 C34.61617471 347.63558116 36.04268217 347.63788197 37.46918881 347.64057809 C41.38932816 347.64669902 45.30944619 347.64656215 49.22958922 347.64538372 C53.45735361 347.64517978 57.68511112 347.65069772 61.91287231 347.65544128 C70.19571219 347.66374987 78.47854495 347.66649621 86.76138864 347.66705366 C93.49319044 347.6675287 100.22498988 347.66958282 106.95679092 347.67275429 C126.03857656 347.68156122 145.12035657 347.68617357 164.20214425 347.68542381 C165.74539583 347.68536388 165.74539583 347.68536388 167.31982422 347.68530273 C168.34991325 347.68526185 169.38000228 347.68522097 170.44130613 347.68517885 C187.13930682 347.68477231 203.83728497 347.69434381 220.53527914 347.7084411 C237.67663095 347.72279864 254.81797175 347.72971164 271.95932972 347.72884732 C281.58453837 347.72851515 291.20972337 347.73127112 300.83492661 347.74202538 C309.0292296 347.75112215 317.22349825 347.75331238 325.41780411 347.74651595 C329.59888026 347.74324666 333.77989047 347.7432088 337.96096039 347.7518692 C341.78907582 347.75971701 345.61707284 347.75832042 349.44518532 347.74958507 C350.8294048 347.74804629 352.21363305 347.74988045 353.5978422 347.75544515 C364.75995771 348.31696832 364.75995771 348.31696832 374.375 343.6875 C376.51975001 339.51715277 376.62587902 335.29348815 376.6418457 330.67163086 C376.64888016 329.52371567 376.65591461 328.37580048 376.66316223 327.19309998 C376.66940865 325.34761314 376.66940865 325.34761314 376.67578125 323.46484375 C376.69896653 320.85611161 376.72308333 318.24738761 376.74804688 315.63867188 C376.78448867 311.52823781 376.81424959 307.41795749 376.82592773 303.30737305 C376.83793826 299.33874839 376.8815157 295.37074339 376.92578125 291.40234375 C376.92387283 290.16999496 376.92196442 288.93764618 376.91999817 287.66795349 C376.93648911 286.52319046 376.95298004 285.37842743 376.9699707 284.19897461 C376.97583694 283.19257431 376.98170319 282.18617401 376.98774719 281.14927673 C377.64193138 277.76595717 378.79186715 276.5755161 381.5 274.5 C385.37235865 273.94680591 387.49997942 273.75224158 390.68540955 276.13412476 C393.04223067 279.206964 393.01239143 281.00384764 393.03344727 284.85400391 C393.0492836 286.14279449 393.06511993 287.43158508 393.08143616 288.75942993 C393.07759239 290.16514446 393.07255207 291.57085615 393.06640625 292.9765625 C393.07164536 294.42662962 393.07792289 295.87669333 393.08518982 297.32675171 C393.09559773 300.36822518 393.09103307 303.40923104 393.07641602 306.45068359 C393.05931274 310.32432334 393.08261354 314.19646792 393.11790562 318.06994057 C393.14001976 321.06771441 393.13840329 324.06513907 393.1301403 327.06296921 C393.12932674 328.48933923 393.13607504 329.91573647 393.15091133 331.34202957 C393.23552523 340.95696418 392.49842042 349.08050766 385.74464417 356.40322876 C377.75504906 363.971685 369.49295426 363.93696716 358.98258972 363.89440918 C357.49049286 363.89930072 355.99839979 363.90549174 354.50631315 363.91286707 C350.41400789 363.92925657 346.32189542 363.92695069 342.22956884 363.9214921 C337.81293909 363.91882067 333.39636058 363.93335587 328.97975159 363.94558716 C320.32986597 363.96663886 311.68004738 363.97118215 303.03013917 363.96939927 C295.99853718 363.96809146 288.9669561 363.97189675 281.93535805 363.97932434 C279.90962341 363.98142355 277.88388876 363.98352115 275.85815412 363.98561716 C274.34573216 363.98718245 274.34573216 363.98718245 272.80275623 363.98877937 C253.73432142 364.00768084 234.66592509 364.00663188 215.5974848 363.99981004 C198.15793668 363.99423519 180.71853549 364.01505773 163.2790217 364.04817051 C145.3680426 364.08191424 127.45713386 364.09707495 109.54612237 364.09245348 C99.49211653 364.09020941 89.43824648 364.09544276 79.38426781 364.12034607 C70.82443034 364.14136803 62.2648031 364.14494232 53.70495697 364.12604648 C49.33907918 364.116894 44.97359329 364.11573049 40.60774612 364.13640213 C36.60725823 364.15513406 32.60748258 364.15058437 28.60702161 364.12785631 C27.163589 364.12367609 25.72010156 364.12785124 24.27672698 364.14145225 C14.79437745 364.2246855 6.81570415 363.39900603 -0.4046939 356.74461508 C-7.78335107 348.94807485 -7.93525695 341.06696727 -7.88768005 330.77742004 C-7.89185556 329.37179298 -7.89733427 327.96616928 -7.90399987 326.56055182 C-7.91844408 322.70748718 -7.91421306 318.85463664 -7.90683305 315.00156033 C-7.90210133 310.84272007 -7.91461103 306.68392611 -7.92485046 302.52510071 C-7.94204172 294.38255492 -7.94287807 286.24008629 -7.93763756 278.09752706 C-7.93359647 271.4815871 -7.93503868 264.86566994 -7.94038582 258.24973106 C-7.94113424 257.30821156 -7.94188266 256.36669206 -7.94265376 255.39664167 C-7.94418522 253.48401533 -7.94572357 251.57138899 -7.94726873 249.65876266 C-7.96099409 231.72646491 -7.95555505 213.79421081 -7.94408352 195.86191406 C-7.93414348 179.44650736 -7.94710505 163.03121324 -7.97101771 146.6158239 C-7.99538036 129.76482632 -8.00502404 112.91388124 -7.99836498 96.06286639 C-7.99486743 86.60040332 -7.99714052 77.13802694 -8.01461601 67.67557716 C-8.02930226 59.62356255 -8.03002009 51.57169572 -8.0125451 43.51968411 C-8.00400451 39.40978152 -8.00195981 35.30014334 -8.01719666 31.19025421 C-8.03096257 27.43070766 -8.02638629 23.67165407 -8.00695742 19.91213664 C-8.0013739 17.90226697 -8.01553585 15.8923727 -8.03031152 13.88254958 C-8.02049723 12.69454779 -8.01068294 11.50654599 -8.00057125 10.28254414 C-8.00046391 9.25501823 -8.00035658 8.22749232 -8.00024599 7.16882926 C-7.09709845 2.35050659 -4.70659195 0.67237028 0 0 Z " fill="#000000" transform="translate(63.5,148.5)"/>
<path d="M0 0 C0.69550392 -0.00523668 1.39100784 -0.01047336 2.10758764 -0.01586872 C4.43191657 -0.03083834 6.75602477 -0.0315732 9.08039856 -0.03224182 C10.74962229 -0.0398655 12.41884252 -0.04829336 14.08805847 -0.0574646 C18.61928785 -0.07939933 23.15044974 -0.08820743 27.68172622 -0.09329104 C30.51526611 -0.09693664 33.34878838 -0.10317785 36.18232155 -0.11029243 C46.07527567 -0.13478597 55.96817739 -0.14783806 65.86116028 -0.15138245 C75.06966248 -0.15501488 84.27783081 -0.1848895 93.48623103 -0.22678703 C101.4015085 -0.26153292 109.31667559 -0.27693165 117.23202878 -0.27762848 C121.95523231 -0.27842 126.67809587 -0.28710073 131.40122032 -0.31562614 C135.84765297 -0.34187969 140.29346559 -0.34397162 144.73994064 -0.3279705 C146.36605371 -0.32616163 147.99220303 -0.33279578 149.61823845 -0.34878922 C158.53779308 -0.43112617 166.50745803 -0.30996042 173.97419739 5.27415466 C179.25779 10.70083886 181.58397391 16.05974111 182.28669739 23.64915466 C181.60575536 31.54808222 179.07023915 38.02364889 172.97419739 43.27415466 C166.85788141 47.15135689 161.54456975 48.39661702 154.32766724 48.41459656 C153.32751195 48.41905324 153.32751195 48.41905324 152.3071515 48.42359996 C150.07416511 48.43226751 147.84123246 48.43379357 145.60823059 48.43528748 C144.00649908 48.4399171 142.40476868 48.44494195 140.80303955 48.45033264 C136.45157164 48.46344641 132.10011916 48.46989983 127.74863458 48.4743433 C125.02818295 48.47727621 122.30773551 48.48138147 119.587286 48.48584747 C111.07046857 48.49952089 102.55366075 48.50918781 94.03683311 48.51304936 C84.21534455 48.51752722 74.39399536 48.53506312 64.57254916 48.56404996 C56.97493561 48.58569253 49.37736119 48.59575505 41.77971715 48.59709048 C37.24496964 48.59813684 32.71035317 48.60400833 28.1756382 48.6219101 C23.90663263 48.63843493 19.63785596 48.64052496 15.36882973 48.63177109 C13.8068073 48.63100302 12.24477235 48.63531293 10.68278122 48.64522934 C0.08357565 48.70854229 -9.56532186 48.38864984 -18.02580261 41.27415466 C-23.80961056 33.53106218 -24.81154725 26.87390442 -24.02580261 17.27415466 C-22.31705257 10.6241784 -17.56098743 6.08796916 -12.02580261 2.27415466 C-7.9227372 0.26529638 -4.54530083 0.01699991 0 0 Z M-8.02580261 21.27415466 C-8.94246928 24.27415466 -8.94246928 24.27415466 -8.02580261 27.27415466 C-5.22190481 30.84231464 -3.44421192 32.06515236 1.08281136 32.73220825 C5.18182425 32.91365587 9.25370182 32.92754031 13.3553009 32.88938904 C14.93426611 32.8928921 16.51322779 32.89855277 18.09217834 32.90620422 C22.37118311 32.92043432 26.6495439 32.90340914 30.92848706 32.87991905 C35.40912955 32.85979199 39.88974578 32.86569051 44.37042236 32.86802673 C51.89332178 32.86797319 59.41596982 32.84823031 66.938797 32.81614685 C75.63442365 32.77924174 84.32972121 32.7704734 93.02541596 32.77744436 C101.39436888 32.7837505 109.76320904 32.77299388 118.13213921 32.753479 C121.69224085 32.74530748 125.25228485 32.74259499 128.8123951 32.74417114 C133.00432401 32.74505039 137.19594041 32.73082325 141.38778687 32.70494461 C142.92566856 32.69778575 144.46358352 32.69569785 146.0014782 32.69906235 C148.10169623 32.7027805 150.20100389 32.68801964 152.30111694 32.66856384 C153.47598443 32.66483513 154.65085192 32.66110641 155.86132145 32.65726471 C159.31221543 32.23255387 161.19037307 31.31823433 163.97419739 29.27415466 C165.72113731 26.89196386 165.99696012 25.72940933 165.84919739 22.77415466 C164.74743128 19.62625149 163.587965 18.34967265 160.97419739 16.27415466 C157.85084091 15.66970883 157.85084091 15.66970883 154.30075073 15.75949097 C153.63115828 15.75254544 152.96156582 15.74559991 152.27168268 15.73844391 C150.02903384 15.72015422 147.78744053 15.73044271 145.54475403 15.7407074 C143.93652555 15.73364984 142.32830372 15.72490551 140.72009277 15.71459961 C136.352256 15.69207679 131.98478108 15.69505209 127.61690831 15.70392108 C123.97117727 15.70902745 120.32551445 15.70174124 116.67979044 15.69444901 C108.07937924 15.67744066 99.47914543 15.68102505 90.8787384 15.69773865 C82.00469493 15.71466098 73.13114331 15.69882616 64.25715357 15.66651577 C56.63918639 15.63982891 49.0213724 15.63254141 41.40336317 15.64103085 C36.85303708 15.64596274 32.30300697 15.64373045 27.75271797 15.62324333 C23.47369626 15.60490031 19.19538255 15.6108275 14.916399 15.63544273 C13.34625604 15.6404551 11.77605928 15.63694971 10.20595932 15.62429428 C8.06136697 15.6083762 5.91910971 15.62329742 3.77462769 15.64596558 C2.57503953 15.64655189 1.37545137 15.6471382 0.13951206 15.64774227 C-3.95781401 16.45859872 -5.45041532 18.05393456 -8.02580261 21.27415466 Z " fill="#000000" transform="translate(222.0258026123047,177.72584533691406)"/>
<path d="M0 0 C0.68002414 -0.00453111 1.36004827 -0.00906223 2.0606792 -0.01373065 C4.32663545 -0.02633431 6.5923501 -0.02475691 8.8583374 -0.02310181 C10.48829963 -0.02908966 12.11825903 -0.0358958 13.74821472 -0.04345703 C18.16782662 -0.06109989 22.58736103 -0.06581174 27.00700474 -0.0670886 C29.77136855 -0.06851193 32.53571278 -0.07278502 35.30007172 -0.07808304 C44.95313259 -0.0965789 54.6061383 -0.10475436 64.25921631 -0.10317993 C73.24218377 -0.10197923 82.2249107 -0.12306873 91.20781732 -0.15466726 C98.93203361 -0.18086509 106.65617153 -0.19154573 114.38043189 -0.19026911 C118.98843074 -0.18976043 123.59621583 -0.19539122 128.20417023 -0.21662521 C132.54139413 -0.23606635 136.8782017 -0.23609218 141.21544075 -0.22159195 C142.80123316 -0.21950989 144.38705203 -0.2241686 145.9727993 -0.23631287 C155.67356942 -0.3057532 164.40660432 0.01567983 172.40814209 6.09164429 C177.20506606 11.91386498 179.49165434 17.22772269 180.44329834 24.70492554 C179.49920751 32.39252233 176.61860213 38.31343756 171.17767334 43.79476929 C163.0265105 49.32172683 154.18731144 48.70723587 144.74261475 48.68734741 C143.09265063 48.69469479 141.44269165 48.70328297 139.79273987 48.7130127 C135.32776271 48.73516683 130.86297045 48.73816245 126.39794588 48.73626518 C122.66302215 48.7361452 118.9281372 48.7447206 115.19322431 48.7530427 C106.3777928 48.77225475 97.56245598 48.77516858 88.74700928 48.7684021 C79.6696434 48.76176249 70.59268399 48.78462745 61.51540053 48.82171583 C53.70620663 48.8524587 45.89714319 48.8637679 38.08789003 48.85987902 C33.43069793 48.85781629 28.77382226 48.8632169 24.11668777 48.88777161 C19.7350308 48.91011229 15.35403264 48.90810056 10.97237206 48.88784409 C9.37045334 48.88444696 7.76848964 48.88946691 6.1666317 48.90382767 C-3.73658397 48.98643874 -12.30390324 48.50420283 -19.9194088 41.49565887 C-25.53739106 35.55325174 -26.53403211 29.3690927 -26.36529541 21.36898804 C-25.53328411 14.41512517 -22.52546567 9.11304608 -17.05670166 4.76742554 C-11.73038139 1.00509664 -6.44207523 0.01780041 0 0 Z M-8.99420166 19.26742554 C-10.43851021 22.15604263 -10.37108672 24.06390255 -9.99420166 27.26742554 C-7.44231419 30.49791198 -5.93512682 32.08012806 -1.84729767 32.89383793 C-0.65638268 32.89442424 0.53453232 32.89501055 1.76153564 32.89561462 C2.42789897 32.90270901 3.0942623 32.9098034 3.78081846 32.91711277 C6.00679464 32.93467184 8.23101964 32.91660154 10.45697021 32.89852905 C12.05549412 32.90366874 13.65401236 32.9109504 15.2525177 32.92021179 C19.58940931 32.93872795 23.92568623 32.92578614 28.26255226 32.90612149 C32.8019342 32.88973533 37.34127721 32.89854784 41.88067627 32.90364075 C49.50370095 32.90816175 57.12648026 32.89229153 64.74945068 32.86434937 C73.56155414 32.83229738 82.37321506 32.83231314 91.18534994 32.84956414 C99.66376893 32.86543019 108.14202573 32.85869517 116.62043762 32.84162712 C120.22801533 32.8347561 123.83546306 32.83578958 127.44303894 32.84317207 C131.69165288 32.85083559 135.93976344 32.83870694 140.18829155 32.81132317 C141.74713586 32.8044389 143.30602718 32.80434186 144.86487007 32.8115387 C146.99382799 32.82023475 149.1212329 32.80427808 151.25006104 32.78208923 C152.44097603 32.77928231 153.63189102 32.77647539 154.85889435 32.77358341 C158.64604911 32.1644456 160.3050137 30.94285984 163.00579834 28.26742554 C164.16790053 25.87391058 164.16790053 25.87391058 164.00579834 23.26742554 C162.38424205 19.78107952 161.24126542 18.42440359 158.00579834 16.26742554 C155.00697396 15.96118622 155.00697396 15.96118622 151.52853394 16.00672913 C150.86796301 16.00290358 150.20739208 15.99907803 149.52680385 15.99513656 C147.30894679 15.98480146 145.09134837 15.9887996 142.87347412 15.99276733 C141.28510294 15.98842109 139.69673387 15.98323824 138.10836792 15.97727966 C133.7901422 15.96386785 129.47200388 15.96331349 125.15376139 15.96584296 C121.550349 15.96691136 117.94695438 15.96203259 114.34354579 15.95723754 C105.84244072 15.94613447 97.34137982 15.94570922 88.840271 15.95175171 C80.06804632 15.95779104 71.29598206 15.94548339 62.52378476 15.92418164 C54.99503561 15.90657109 47.46633754 15.90056348 39.93756855 15.90381938 C35.43983214 15.90563351 30.94221012 15.90298331 26.44449234 15.88910484 C22.21407371 15.87654025 17.98390518 15.87845756 13.75349045 15.89151573 C12.20108201 15.89388419 10.64865605 15.89113718 9.0962677 15.88289261 C6.97623092 15.87244558 4.85703648 15.88050842 2.73703003 15.89320374 C1.55089174 15.89303599 0.36475346 15.89286825 -0.85732841 15.89269543 C-4.32672507 16.3071487 -6.21292242 17.18761793 -8.99420166 19.26742554 Z " fill="#000000" transform="translate(223.99420166015625,375.7325744628906)"/>
<path d="M0 0 C1.03568519 -0.00701996 1.03568519 -0.00701996 2.09229332 -0.01418173 C4.38758037 -0.02607192 6.68226369 -0.01669842 8.97755432 -0.00723267 C10.63061367 -0.01130108 12.2836703 -0.01664447 13.9367218 -0.02316284 C18.41404251 -0.03681126 22.89115526 -0.03154775 27.36847949 -0.02202559 C32.06126119 -0.01441489 36.75402544 -0.02147863 41.44680786 -0.02618408 C49.32769456 -0.03163806 57.20849685 -0.02445996 65.08937073 -0.01016235 C74.18995097 0.0061578 83.2903295 0.00087883 92.39090484 -0.01564157 C100.21447834 -0.02927338 108.03799126 -0.03116764 115.8615728 -0.02332556 C120.52980323 -0.01865763 125.19793898 -0.01799983 129.86616325 -0.02793503 C134.25670647 -0.03662689 138.64699074 -0.03054236 143.0375061 -0.01325226 C144.6450921 -0.00929901 146.25270003 -0.0104015 147.86027718 -0.01704025 C164.69176897 -0.0801185 164.69176897 -0.0801185 171.96803284 4.85360718 C177.40896162 10.3349389 180.289567 16.25585413 181.23365784 23.94345093 C180.28201384 31.42065377 177.99542556 36.73451148 173.19850159 42.55673218 C164.54366935 49.12877552 154.85423811 48.95169785 144.45777893 48.88265991 C142.82398006 48.88644909 141.19018441 48.89195405 139.55639648 48.89903259 C135.14529689 48.91292426 130.73459009 48.90186293 126.32351255 48.88532138 C121.6948136 48.87141016 117.06613605 48.87793767 112.43742371 48.88145447 C104.66859144 48.88415126 96.89991416 48.87072487 89.13111877 48.84750366 C80.16168384 48.82087854 71.19250759 48.81915477 62.22304666 48.83089203 C53.57539282 48.84168602 44.92783215 48.83547122 36.2801857 48.82133675 C32.60812287 48.81559289 28.93612858 48.81564695 25.26406479 48.82040215 C20.93830689 48.82518872 16.61283087 48.81500096 12.28712654 48.79344749 C10.70373167 48.78790298 9.12030958 48.78739278 7.53691292 48.79240036 C-11.38809408 48.84472861 -11.38809408 48.84472861 -18.81712341 42.00595093 C-24.10391373 35.81072622 -26.01161606 29.34656591 -25.61790466 21.27548218 C-24.59581625 14.13050561 -21.81346912 9.25381393 -16.27806091 4.67001343 C-10.81705893 1.27617039 -6.42880167 0.00591455 0 0 Z M-9.20384216 21.38095093 C-9.95399411 24.42403384 -9.95399411 24.42403384 -9.20384216 27.38095093 C-7.33674306 29.68370649 -5.84736475 31.05918963 -3.20384216 32.38095093 C-1.08676912 32.48382605 1.0336104 32.52048658 3.15316772 32.52812195 C3.81288423 32.53179864 4.47260073 32.53547532 5.15230864 32.53926343 C7.3731991 32.5503174 9.59404279 32.55414698 11.81495667 32.55795288 C13.40317942 32.56421621 14.9914007 32.5708629 16.57962036 32.5778656 C20.90200874 32.59528677 25.22438605 32.60583029 29.54680085 32.61407113 C32.24610414 32.61921867 34.94540397 32.62529449 37.64470482 32.63158226 C46.08676713 32.65063701 54.52882067 32.66486783 62.97090036 32.67319423 C72.72231008 32.68297029 82.47349303 32.70929816 92.22482282 32.74969512 C99.75778963 32.77983332 107.29069135 32.79466089 114.8237173 32.79797524 C119.32487997 32.80032826 123.82580046 32.80932123 128.32689857 32.83443642 C132.56144151 32.85768229 136.7955822 32.86196457 141.03017235 32.85167503 C142.58420523 32.85117872 144.13825768 32.8575274 145.69223022 32.87123108 C147.81470275 32.88890051 149.93572392 32.88187025 152.05819702 32.86869812 C153.24563413 32.87108647 154.43307123 32.87347483 155.65649128 32.87593555 C159.45557334 32.27699067 161.10391194 31.08301795 163.79615784 28.38095093 C165.0429279 25.48388386 165.0429279 25.48388386 164.79615784 22.38095093 C163.02576334 19.63378706 161.7332394 17.84949171 158.79615784 16.38095093 C156.66647191 16.27590313 154.53343597 16.23700449 152.40118408 16.22705078 C151.405484 16.2204774 151.405484 16.2204774 150.38966876 16.21377122 C148.15496373 16.20036672 145.92029815 16.19420071 143.68556213 16.18807983 C142.08748699 16.18018021 140.48941363 16.17191135 138.89134216 16.16329956 C133.63437101 16.13706484 128.37739182 16.1217712 123.12037659 16.10751343 C121.31206062 16.10215448 119.50374471 16.09677697 117.69542885 16.09138107 C110.1747173 16.06975086 102.65400791 16.05101319 95.13327312 16.03975868 C84.34756756 16.02351317 73.5622219 15.99032257 62.77665204 15.93335783 C55.19697837 15.89468711 47.61740108 15.87512944 40.03763133 15.86983812 C35.50846179 15.8661809 30.97967597 15.85412065 26.45061302 15.82173538 C22.1897457 15.79170473 17.92949528 15.78532477 13.66854477 15.79711914 C12.10482677 15.79734029 10.54108056 15.78900065 8.97746086 15.7714653 C6.84158999 15.74881648 4.70796438 15.75704484 2.57208252 15.77294922 C1.37727107 15.76963907 0.18245962 15.76632893 -1.04855824 15.76291847 C-5.14441847 16.56518369 -6.63801827 18.15686665 -9.20384216 21.38095093 Z " fill="#000000" transform="translate(223.20384216308594,276.6190490722656)"/>
<path d="M0 0 C3.21605752 2.37708599 4.73163575 3.90214626 5.6875 7.8125 C4.66412821 12.55722378 2.10548054 15.34508829 -1 19 C-1.8353125 19.99515625 -2.670625 20.9903125 -3.53125 22.015625 C-5.41504532 24.25311525 -7.30852073 26.48201918 -9.20703125 28.70703125 C-11.67637193 31.6074331 -14.09674111 34.54446618 -16.5 37.5 C-20.24324151 42.09883957 -24.05859437 46.63056124 -27.90087891 51.14648438 C-31.64939818 55.56085037 -35.30681207 60.04423711 -38.9296875 64.5625 C-45.11213062 71.8414519 -45.11213062 71.8414519 -49.5 72.625 C-54.63337655 71.70832562 -56.70999134 68.82528359 -59.6015625 64.73388672 C-61.36628515 62.05884775 -63.06517427 59.35101016 -64.75 56.625 C-65.33910156 55.70460938 -65.92820312 54.78421875 -66.53515625 53.8359375 C-69.63068078 48.85463365 -71.94617087 44.93658421 -72 39 C-70.65437601 36.05244268 -69.91445456 34.45722728 -67 33 C-63.40375772 32.60041752 -61.59366065 32.60705319 -58.5390625 34.62890625 C-55.69859949 37.28146171 -54.06794703 39.85782105 -52.1875 43.25 C-51.58292969 44.32765625 -50.97835937 45.4053125 -50.35546875 46.515625 C-49.90816406 47.33546875 -49.46085937 48.1553125 -49 49 C-45.19609481 45.29327487 -41.68814618 41.42129169 -38.25 37.375 C-37.72414307 36.75890869 -37.19828613 36.14281738 -36.65649414 35.50805664 C-32.80964955 30.98741474 -29.03819948 26.40916451 -25.296875 21.80078125 C-22.17709298 17.99655725 -18.99509171 14.24656704 -15.80444336 10.50170898 C-13.75565902 8.09326344 -11.74545212 5.67356382 -9.80078125 3.1796875 C-6.85873058 -0.38140637 -4.5126997 -0.53090585 0 0 Z " fill="#000000" transform="translate(187,249)"/>
<path d="M0 0 C3.21605752 2.37708599 4.73163575 3.90214626 5.6875 7.8125 C4.66412821 12.55722378 2.10548054 15.34508829 -1 19 C-1.8353125 19.99515625 -2.670625 20.9903125 -3.53125 22.015625 C-5.41504532 24.25311525 -7.30852073 26.48201918 -9.20703125 28.70703125 C-11.67637193 31.6074331 -14.09674111 34.54446618 -16.5 37.5 C-20.24324151 42.09883957 -24.05859437 46.63056124 -27.90087891 51.14648438 C-31.64939818 55.56085037 -35.30681207 60.04423711 -38.9296875 64.5625 C-45.11213062 71.8414519 -45.11213062 71.8414519 -49.5 72.625 C-54.63337655 71.70832562 -56.70999134 68.82528359 -59.6015625 64.73388672 C-61.36628515 62.05884775 -63.06517427 59.35101016 -64.75 56.625 C-65.33910156 55.70460937 -65.92820312 54.78421875 -66.53515625 53.8359375 C-69.63068078 48.85463365 -71.94617087 44.93658421 -72 39 C-70.65437601 36.05244268 -69.91445456 34.45722728 -67 33 C-63.40375772 32.60041752 -61.59366065 32.60705319 -58.5390625 34.62890625 C-55.69859949 37.28146171 -54.06794703 39.85782105 -52.1875 43.25 C-51.58292969 44.32765625 -50.97835937 45.4053125 -50.35546875 46.515625 C-49.90816406 47.33546875 -49.46085937 48.1553125 -49 49 C-45.19609481 45.29327487 -41.68814618 41.42129169 -38.25 37.375 C-37.72414307 36.75890869 -37.19828613 36.14281738 -36.65649414 35.50805664 C-32.80964955 30.98741474 -29.03819948 26.40916451 -25.296875 21.80078125 C-22.17709298 17.99655725 -18.99509171 14.24656704 -15.80444336 10.50170898 C-13.75565902 8.09326344 -11.74545212 5.67356382 -9.80078125 3.1796875 C-6.85873058 -0.38140637 -4.5126997 -0.53090585 0 0 Z " fill="#000000" transform="translate(187,150)"/>
<path d="M0 0 C3.94386767 1.01996578 5.49207184 1.47149174 7.625 4.9375 C8.375 8.0625 8.375 8.0625 7.625 11.9375 C5.31221561 15.57645162 2.47634505 18.71287161 -0.375 21.9375 C-1.72786483 23.52523022 -3.07145708 25.12051383 -4.41479492 26.71630859 C-5.82238149 28.38672661 -7.23701442 30.05098424 -8.65234375 31.71484375 C-11.09435267 34.59478912 -13.49180209 37.50859667 -15.875 40.4375 C-19.63807545 45.06224568 -23.47795307 49.61546724 -27.34619141 54.15209961 C-30.8570086 58.28396613 -34.22699125 62.51069562 -37.5234375 66.81640625 C-40.63336718 70.37904722 -42.9498348 72.80554026 -47.75 73.25 C-53.29364222 71.24281919 -55.258275 67.81481775 -58.375 62.9375 C-59.06625977 61.86145508 -59.06625977 61.86145508 -59.77148438 60.76367188 C-61.33622741 58.29734835 -62.86091554 55.81021129 -64.375 53.3125 C-65.13345215 52.09554443 -65.13345215 52.09554443 -65.90722656 50.85400391 C-68.24560001 46.87194405 -69.39121153 44.68544095 -69.2890625 39.97265625 C-68.375 36.9375 -68.375 36.9375 -66.75 35 C-63.2539491 33.43597723 -61.16895117 33.28337049 -57.375 33.9375 C-54.88255085 35.92280069 -53.17661412 38.32728742 -51.375 40.9375 C-50.81167969 41.7521875 -50.24835938 42.566875 -49.66796875 43.40625 C-48.2084836 45.56642474 -46.7794073 47.74124604 -45.375 49.9375 C-44.85292969 49.29425781 -44.33085937 48.65101563 -43.79296875 47.98828125 C-39.58199252 42.81858888 -35.32970999 37.69515539 -31 32.625 C-27.63705962 28.68409106 -24.36736967 24.69085736 -21.1940918 20.59545898 C-18.94375394 17.69137392 -16.66212436 14.81264686 -14.375 11.9375 C-13.93768555 11.38126953 -13.50037109 10.82503906 -13.04980469 10.25195312 C-5.1221215 0.29350419 -5.1221215 0.29350419 0 0 Z " fill="#000000" transform="translate(184.375,348.0625)"/>
</svg>
